<?xml version="1.0" encoding="UTF-8"?><svg id="b" xmlns="http://www.w3.org/2000/svg" viewBox="0 0 1450.86 1000"><g id="c"><g><path d="M0,432.68c9.62,11.4,20.45,21.68,31.16,32.03,29.18,29.02,51.61,65.88,59.14,106.69-33.08,10.47-64,27.74-90.3,50.37v-189.09Z" style="fill:#fff9f1;"/><path d="M1311.63,965.77c22.07,8.71,43.84,19.07,62.27,34.23h-70.27c2.78-11.38,5.43-22.8,8-34.23Z" style="fill:#fff9f1;"/></g><g><path d="M344.02,0h10.86c-9.72,27.06-29.17,49.42-50.95,67.64-25.51,21.13-54.69,37.34-84.73,51.04-26.74,12.06-54.33,22.12-82.32,30.87-17.2,5.34-34.22,11.31-50.86,18.2-20.16,8.38-39.88,17.97-58.27,29.76-9.72,6.25-19.13,13.04-27.75,20.74v-13.29c8.89-7.34,18.49-13.78,28.32-19.79,16.13-9.79,33.12-18.11,50.49-25.44,22.34-9.51,45.48-16.92,68.61-24.22,21.71-7.2,43.14-15.26,64.03-24.56,31.1-13.99,61.36-30.6,87.55-52.63,18.83-15.99,35.62-35.22,45.02-58.32Z" style="fill:#ff3d71;"/><path d="M1255.85,29.57c21.21-6.17,44.97-3.64,64.09,7.56,2.61,1.54,5.46,2.61,8.32,3.63,38.23,14.12,70.15,43.97,87.35,80.85-.73,2.41-1.42,4.82-2.07,7.24-.47-2.22-.94-4.43-1.45-6.63-1.83,5.03-2.55,10.4-4.56,15.36-1.87,4.79-4.87,9.05-6.64,13.88,3.33-1.8,5.88-4.62,8.34-7.42-.9,4.74-2.03,9.54-4.72,13.63-28.3-17.6-51.56-43.21-65.94-73.3-7.14-13.84-11.65-28.78-16.27-43.58-.69,11.02,1.68,21.94,4.35,32.56,10.51,39.19,38.88,73.58,76.36,89.62-1.12,2.71-2.11,5.47-3.29,8.15-8.52-3.06-15.65-8.74-23.09-13.71-15.35-11.49-29.3-25.11-39.89-41.18-4.97-7.03-8.61-14.85-12.47-22.51-7.16-14.36-11.26-30.01-14.02-45.76-.13,18.39,5.45,36.37,12.82,53.05,14.73,32.66,42.57,58.31,74.96,73.05-2.45,4.73-4.74,9.54-7.28,14.22-8.33-4.34-15.52-10.42-23.02-16-26.49-21.18-48.79-47.91-63.42-78.6-7.81-14.81-12.86-30.84-17.17-46.96-.23,7.59,2.39,14.82,4.04,22.12,7.62,27.54,21.88,53,40.14,74.89,6.17,6.17,11.37,13.3,18.31,18.67,11.94,10.92,25.04,20.63,39.27,28.37-2.2,3.46-4.2,7.04-6.35,10.52-7.44-3.4-13.33-9.23-19.96-13.89-29.17-22.96-54.09-51.66-71.27-84.67-5.25-10.03-10.31-20.2-14.14-30.87-2.75-6.64-4.25-13.74-7.26-20.27,.51,8.18,3.4,15.96,5.72,23.75,9.88,29.61,26.13,56.93,46.58,80.43,6.11,5.91,11.29,12.74,17.84,18.19,6.35,5.31,12.3,11.12,19.08,15.91,6.86,4.86,13.57,9.97,20.94,14.08-2.17,3.01-4.15,6.16-6.6,8.95l-.37,.41c-15.59-11.33-30.86-23.23-44.41-36.98-31.83-30.77-55.89-69.15-71.6-110.44-3.04-7.86-5.08-16.04-7.84-23.99,1.34,22.55,8.95,44.18,17.81,64.78-5.52-1.83-11.15-3.82-17.05-3.61-12.43,.33-24.74,5.66-33.11,14.93,9.79-4.04,19.33-9.15,30.02-10.41,6.83-.69,14.07-1.39,20.7,.84,3.52,4.73,5.3,10.52,8.43,15.52,6.63,11.87,14.19,23.23,22.73,33.8-26.51,13.59-56.88,15.14-86.03,17.18,.65-9.65,2.16-19.22,2.26-28.9,.48-24.8-2.59-49.86-10.59-73.4-2.1-5.82-4.07-11.78-7.46-17.01,.57,6.61,2.98,12.86,4.14,19.36,10.69,53.35,4.95,109.59-14.87,160.16-3.06,9.66-8.24,18.46-11.54,28.03l-.46-.07c-5.74-.95-11.37-2.43-17.06-3.55,.11-1,.24-1.99,.38-2.98,5.77-8.94,9.9-18.78,14.81-28.19,16.28-35.92,25.05-75.71,22.22-115.22-1.25-15.06-3.78-30.19-9.37-44.29,.27,5.5,1.96,10.77,2.86,16.17,7.39,41.44,1.05,84.29-12.21,123.89-3.7,9.32-6.71,18.92-11.05,27.98-2.65,5.79-5.28,11.58-7.87,17.4-.83,1.47-1.69,2.92-2.54,4.37-9.42-2.14-18.62-5.08-27.97-7.47-1.71-4.05-3.31-8.13-4.7-12.29-1.15-3.53-2.2-7.09-3.14-10.67-2.35-9.27-3.91-18.74-4.57-28.28-.97-13.51-.1-27.13,2.39-40.44,7.29-39.75,30.58-76.21,63.57-99.56,5.12-4,11.17-6.65,16.16-10.83,12.54-12.33,30.73-16.99,47.91-16.9,4.11,.18,7.92-1.53,11.79-2.67Zm87.59,21.25c0,5.42,.16,10.85-.46,16.24-.46,4.51-2.31,8.71-3.04,13.17,4.75-3.48,6.45-9.6,6.91-15.21,.04-4.87-.28-10.21-3.41-14.2Zm-132.43,14.18c4.92-1.61,9.55-4.04,14.57-5.4,5.69-1.8,11.69-2.11,17.58-2.96-10.73-6.05-25.34-1.55-32.15,8.36Zm143.34-9.02c-.13,6.22,.24,12.48-.79,18.65-.88,6.27-3.08,12.25-4.37,18.43,3.42-2.92,4.96-7.29,6.44-11.41,2.58-8.3,3-17.84-1.28-25.67Zm11.08,9.02c-.18,6.82-.11,13.74-2.03,20.35-1.46,6.9-4.99,13.05-7.32,19.65,6.2-5.74,10.1-13.75,11.57-22.02,.71-6.01,1.06-12.6-2.22-17.98Zm-153.41,15.98c6.45-2.39,12.77-5.31,19.6-6.48,5.78-1.29,11.71-1.31,17.59-1.84-12.19-6.4-28.78-2.5-37.19,8.32Zm165.52-7.08c-.93,10.34-3.37,20.56-7.56,30.07-1.67,3.82-4.21,7.16-6.03,10.89,7.19-4.84,11.49-12.98,13.57-21.22,1.46-6.41,2.36-13.44,.02-19.74Zm-208.36,8.95c.4,10.39,2.22,20.72,1.82,31.15,.55,33.99-5.69,67.94-17.09,99.92-3.45,11.12-9.1,21.4-12.95,32.36,1.17-1.29,2.29-2.65,3.17-4.17,23.57-41.05,34.66-89.55,29.37-136.73-.79-7.6-1.89-15.25-4.32-22.53Zm218.23,1.1c-1.17,8.75-3.02,17.49-6.89,25.47-1.98,4.87-5.45,8.91-7.72,13.63,6.21-2.77,9.38-9.29,12.3-15.04,3.12-7.48,5.03-16.16,2.31-24.06Zm-170.69,14.29c5.53-1.41,10.53-4.37,16.16-5.53,8.22-2.3,16.8-2.09,25.25-2.15-6.23-4.65-14.74-4.06-22.05-3.21-7.22,1.7-14.96,4.57-19.36,10.89Zm177.91,3.68c-1.25,8.52-4.42,16.66-8.55,24.18-1.62,2.97-4.06,5.52-4.89,8.87,11.55-8.75,17.42-23.95,15.39-38.22-1.68,1.19-1.54,3.38-1.95,5.17Zm-241.42,19.11c-.29,28.35-5.59,56.53-14.73,83.33-1.61,5.69-4.62,10.94-5.58,16.82,1.59-2.18,3.11-4.41,4.32-6.83,4.27-9.04,8.16-18.26,11.3-27.76,8.03-27.33,11.24-56.71,4.86-84.72-.96,6.35,.18,12.77-.17,19.16Zm247.94,2.02c-1.95,7.17-6.14,13.35-9.28,20,10.77-6.86,15.06-21.08,12.74-33.24-1.54,4.31-2.08,8.89-3.46,13.24Zm-153.17-1.19c-11.31,1.44-22.29,6.6-30.01,15.08,8.41-3.89,16.83-8.05,26-9.84,10.58-2.45,21.5-1.44,32.17-.21-8.3-5.11-18.63-6.42-28.16-5.03Zm-112.99,24.14c-1.59,14.57-5.16,28.83-9.22,42.88-1.3,4.43-3.12,8.72-3.76,13.32,2.29-2.91,4.1-6.17,5.6-9.54,7.24-15.83,11.72-33.15,11.52-50.63-.01-6.8-.49-13.7-2.69-20.18-.64,8.04-.3,16.14-1.45,24.15Zm101.09,2.08c-5.7,1.99-11.76,3.8-16.36,7.89,3.3-.42,6.45-1.53,9.63-2.5,12.27-3.47,24.93-5.53,37.66-6.23,6.02-.41,12.1,.42,18.07-.65-15.98-4.4-33.26-3.5-49,1.49Z" style="fill:#ff3d71;"/><path d="M1284.21,171.2c5.74-3.21,10.28-8.03,14.92-12.61,1.66,1.75,3.32,3.51,4.87,5.37,4.72,5.9,10.43,10.89,15.64,16.34,7.24,7.5,15.39,14.04,23.54,20.52,8.29,5.72,16.33,11.91,25.27,16.63-4.98,6.31-10.78,12.12-17.39,16.72,.44-6.78,1.52-13.57,.59-20.35-1.86,7.21-2.47,14.67-4.02,21.95-.12,.53-.38,1.6-.5,2.14-5.02,3.15-9.95,6.46-15.15,9.3,2.57-14.3,3.75-28.99,1.63-43.43-1.77,7.61-2.33,15.43-3.97,23.07-1.83,8.49-3.9,16.97-6.95,25.12-.1,.19-.29,.59-.39,.79-15.19,6.45-30.94,11.79-47.3,14.23-9.69,1.9-19.61,1.8-29.34,3.32-1.13-.19-2.24-.37-3.34-.56-9.31-2.64-18.5-5.71-27.37-9.59-6.88-2.72-13.17-6.74-20.12-9.28,8.81,8.33,20.26,12.92,30.82,18.54-6.11,.03-12.19-.82-18.3-.53-1.38-.68-2.74-1.37-4.09-2.06-5.04-3.78-10.22-7.37-15.56-10.71,2.24,3.7,4.93,7.08,7.48,10.56-5.28-.63-10.67-1.07-15.63-3.15,12.64-20.11,21.69-42.32,27.91-65.21,2.01-7.49,3.05-15.21,5.21-22.67,23.04,8.5,49.89,7.51,71.54-4.45Zm4.92,19.9c-15.59,4.63-31.96,5.6-48.13,5.05-9.81,.1-19.48-1.78-29.25-2.04,3.37,1.89,7.22,2.51,10.94,3.37,13.73,2.94,27.9,4.29,41.93,3.07,16.66-1.92,33.98-6.71,46.41-18.55-7.42,2.75-14.18,7.11-21.9,9.1Zm29.47,12.44c-17.33,7.91-36.82,9.04-55.6,8.81-14.35,.09-28.68-1.04-42.92-2.73-3.06-.44-6.16-.76-9.23-.35,19.46,5.82,39.9,8.45,60.21,7.91,10.75-.07,21.55-1.45,31.87-4.51,8.39-2.78,17.1-6.13,23.28-12.71-2.6,1.07-5.08,2.38-7.61,3.58Zm-114.7,21.8c10.85,4.72,22.5,7.33,34,9.94,19.61,3.89,40.09,5.52,59.78,1.33,8.26-2.24,17.16-4.49,23.49-10.61-7.89,2.94-15.76,6.31-24.25,7.11-25.38,3.27-50.96-.39-75.97-4.8-5.7-.9-11.26-2.75-17.05-2.97Zm-2.99,15.75c4.62,3.03,9.87,4.89,14.96,7,12.95,5.24,26.63,8.54,40.46,10.45,19.45,2.3,40.25,1,57.77-8.48-10.92,2.41-21.89,5.28-33.18,4.96-21.55,.54-42.87-3.79-63.55-9.46-5.5-1.47-10.79-3.74-16.46-4.47Z" style="fill:#ff3d71;"/><path d="M1416.66,253.86c1.5-3.64,2.94-7.31,4.81-10.79,17.67,23.11,29.48,51.52,29.39,80.91,.03,18.63-4.75,37.11-13.08,53.72-7.9,15.95-18.76,30.28-30.96,43.17-22.89,23.97-50.33,42.98-78.16,60.73-58.3,36.74-121.42,64.9-180.78,99.78-28.68,16.88-56.66,35.59-80.22,59.26-24.3,24.17-42.69,55.47-46.62,89.94-2.01,16.44-1.65,33.27,1.55,49.54,4.49,19.45,13.23,37.93,25.66,53.57,18.6,23.62,44.19,40.6,70.89,53.8,25.87,12.67,53.09,22.33,80.5,31.09,38.08,12.37,76.88,22.66,114.26,37.12,27.16,10.66,54.28,23.58,75.3,44.3h-15.3c-18.43-15.16-40.2-25.52-62.27-34.23-38.63-15.08-78.83-25.54-118.18-38.52-26.59-8.58-52.94-18.16-78.03-30.52-26.59-13.23-52.09-29.89-71.52-52.65-12.74-14.84-22.5-32.25-28.26-50.95-5.26-15.79-6.23-32.62-5.81-49.15,.48-14.78,3.04-29.51,7.73-43.54,8.97-27.08,26.08-50.79,46.46-70.47,23.93-23.1,51.86-41.55,80.41-58.37,5.74-3.39,11.55-6.67,17.36-9.95,52.6-29.32,107.26-54.94,158.45-86.77,28.1-17.78,55.92-36.73,79.04-60.83,12.34-13.02,23.27-27.57,30.85-43.89,8.31-17.71,12.21-37.65,10-57.16-2.29-21.39-11.24-41.61-23.47-59.14Z" style="fill:#ff3d71;"/><path d="M0,417.11c9.51,11.39,19.52,22.38,30.29,32.59,6.19,5.85,12.23,11.85,17.9,18.21,25.54,28.28,44.8,62.94,51.81,100.62-3.24,.91-6.48,1.86-9.7,2.87-7.53-40.81-29.96-77.67-59.14-106.69-10.71-10.35-21.54-20.63-31.16-32.03v-15.57Z" style="fill:#ff3d71;"/></g><g><path d="M552.89,0h37.72c18.13,16.3,30.14,38.2,38.47,60.85,5.97,17.24,10.12,35.22,18.57,51.5,11.99,25.46,28.37,48.81,47.92,69.02,4.62,6.05,11.03,10.29,16.15,15.86,17.54,15.76,37.14,29.22,57.98,40.22,.27,5.4,.08,10.82,.65,16.21-39.65-20.54-74.05-50.33-102.16-84.86-24.75-30.31-44.96-64.11-61.75-99.39-5.03-10.97-10.06-22.02-16.94-32-9.76-14.58-22.18-27.41-36.61-37.41Z" style="fill:#565656;"/><path d="M215.99,254.99c-.9-5.91-4.68-10.88-5.61-16.76,8.53,6.36,16.79,15.19,17.27,26.41-.15,3.37-.82,6.72-2.1,9.84-3.16,6.79-8.59,12.18-14.57,16.54,11.95,9.22,23.73,22.45,22.7,38.58-.49,3.3-1.43,6.54-2.79,9.6-5.89,12.74-20.59,18.25-33.87,18.15,.49,14.38-2.67,30.45-14.21,40.15-2.63,2.03-5.53,3.7-8.59,4.99-6.67,2.54-14.2,2.67-20.89,.18-10.06-3.66-18.1-11.31-24.42-19.74-2.59,7.76-6.93,15.23-13.74,20.02-2.26,1.34-4.65,2.45-7.11,3.38-12.16,.84-22.82-6.6-31.74-14.01,5.98,.96,11.62,3.47,17.68,4.02,6.86,.87,14.09-.58,19.85-4.46,6.13-3.79,9.85-10.2,12.59-16.66,8.29,10.23,19.22,19.63,32.7,21.48,10.52,.74,20.98-5.29,26.45-14.16,5.78-8.86,7.7-19.82,6.72-30.24,9.73-.27,19.94-2.9,26.92-10.07,3.96-4.73,6.66-10.94,5.78-17.21-1.64-13.21-9.25-24.57-17.03-34.98,6.69-10.21,11.11-22.83,8.01-35.05Z" style="fill:#565656;"/></g><g><path d="M590.61,0h70.08c9.94,15.25,16.37,32.38,24.77,48.47,14.05,27.46,30.66,53.76,50.93,77.08,17,19.56,36.66,36.97,58.93,50.32-6.96,8.55-13.42,17.72-17.37,28.09-4.07,10.84-7.19,22.33-6.98,33.99,.21,5.24,.75,10.57-.62,15.71-.57-5.39-.38-10.81-.65-16.21-20.84-11-40.44-24.46-57.98-40.22-5.12-5.57-11.53-9.81-16.15-15.86-19.55-20.21-35.93-43.56-47.92-69.02-8.45-16.28-12.6-34.26-18.57-51.5-8.33-22.65-20.34-44.55-38.47-60.85Z" style="fill:#606060;"/><path d="M0,78.35c5.95,6.25,12.31,12.1,18.31,18.29-1.48,16.35-1.1,32.95,2.08,49.07,2.29,13.25,8.52,25.76,7.93,39.46-9.83,6.01-19.43,12.45-28.32,19.79V78.35Z" style="fill:#606060;"/><path d="M71.47,214.42c7.54-13.4,14.42-27.28,18.56-42.14,5.56,6.34,11.07,12.73,16.3,19.34,1.24,1.56,2.61,3.22,4.7,3.59,22.3,6.26,44.29,13.79,65.38,23.4,11.86,5.52,23.59,11.59,33.97,19.62,.93,5.88,4.71,10.85,5.61,16.76,3.1,12.22-1.32,24.84-8.01,35.05,7.78,10.41,15.39,21.77,17.03,34.98,.88,6.27-1.82,12.48-5.78,17.21-6.98,7.17-17.19,9.8-26.92,10.07,.98,10.42-.94,21.38-6.72,30.24-5.47,8.87-15.93,14.9-26.45,14.16-13.48-1.85-24.41-11.25-32.7-21.48-2.74,6.46-6.46,12.87-12.59,16.66-5.76,3.88-12.99,5.33-19.85,4.46-6.06-.55-11.7-3.06-17.68-4.02-4.11-3.46-7.93-7.24-11.52-11.23,2.82-4.45,5.43-9.05,7.38-13.95,6.66-15.61,11.41-32.19,12.49-49.18,.3-7.31-.03-15.21-4.07-21.57-2.89-4.48-8.65-5.45-13.57-5.64-10.76-.49-20.87,4.1-30,9.31-5.67,3.2-10.5,7.62-15.81,11.35-2.24-4.45-3.75-9.27-6.26-13.57-4.64-3.78-10.06-6.51-14.96-9.95v-69.64c8.62-7.7,18.03-14.49,27.75-20.74-.7,10.97-3.9,21.59-4.81,32.53-.3,5.13-.25,10.79,2.87,15.14,2.8,3.78,7.7,6.78,12.51,5.26,6.81-2.04,12.23-7.09,16.63-12.49,6.26-7.28,11.58-15.31,16.52-23.53Z" style="fill:#606060;"/></g><g><path d="M1322.3,40.79c4.62,14.8,9.13,29.74,16.27,43.58,14.38,30.09,37.64,55.7,65.94,73.3l-.03,.13c-.48,1.73-.97,3.45-1.47,5.17-37.48-16.04-65.85-50.43-76.36-89.62-2.67-10.62-5.04-21.54-4.35-32.56Z" style="fill:#e83463;"/><path d="M1267.07,106.68c-8.86-20.6-16.47-42.23-17.81-64.78,2.76,7.95,4.8,16.13,7.84,23.99,15.71,41.29,39.77,79.67,71.6,110.44,13.55,13.75,28.82,25.65,44.41,36.98-1.42,1.47-2.9,2.88-4.33,4.32l-.33-.18c-8.94-4.72-16.98-10.91-25.27-16.63-8.15-6.48-16.3-13.02-23.54-20.52-5.21-5.45-10.92-10.44-15.64-16.34-1.55-1.86-3.21-3.62-4.87-5.37-4.64,4.58-9.18,9.4-14.92,12.61-21.65,11.96-48.5,12.95-71.54,4.45-2.16,7.46-3.2,15.18-5.21,22.67-6.22,22.89-15.27,45.1-27.91,65.21-.06,.12-.19,.35-.25,.46-1.55-.29-3.08-.57-4.6-.82,3.3-9.57,8.48-18.37,11.54-28.03,19.82-50.57,25.56-106.81,14.87-160.16-1.16-6.5-3.57-12.75-4.14-19.36,3.39,5.23,5.36,11.19,7.46,17.01,8,23.54,11.07,48.6,10.59,73.4-.1,9.68-1.61,19.25-2.26,28.9,29.15-2.04,59.52-3.59,86.03-17.18-8.54-10.57-16.1-21.93-22.73-33.8-3.13-5-4.91-10.79-8.43-15.52-6.63-2.23-13.87-1.53-20.7-.84-10.69,1.26-20.23,6.37-30.02,10.41,8.37-9.27,20.68-14.6,33.11-14.93,5.9-.21,11.53,1.78,17.05,3.61Z" style="fill:#e83463;"/><path d="M1287.14,46.72c4.31,16.12,9.36,32.15,17.17,46.96,14.63,30.69,36.93,57.42,63.42,78.6,7.5,5.58,14.69,11.66,23.02,16,.22,.14,.65,.42,.86,.55-.92,.65-1.82,1.29-2.71,1.94-14.23-7.74-27.33-17.45-39.27-28.37-6.94-5.37-12.14-12.5-18.31-18.67-18.26-21.89-32.52-47.35-40.14-74.89-1.65-7.3-4.27-14.53-4.04-22.12Z" style="fill:#e83463;"/><path d="M1310.25,47.96c2.76,15.75,6.86,31.4,14.02,45.76,3.86,7.66,7.5,15.48,12.47,22.51,10.59,16.07,24.54,29.69,39.89,41.18,7.44,4.97,14.57,10.65,23.09,13.71l-.26,.53c-.48,.81-.96,1.61-1.43,2.41-32.39-14.74-60.23-40.39-74.96-73.05-7.37-16.68-12.95-34.66-12.82-53.05Z" style="fill:#e83463;"/><path d="M1269.92,51.59c3.01,6.53,4.51,13.63,7.26,20.27,3.83,10.67,8.89,20.84,14.14,30.87,17.18,33.01,42.1,61.71,71.27,84.67,6.63,4.66,12.52,10.49,19.96,13.89l-.26,.33c-.73,.8-1.48,1.56-2.21,2.33-7.37-4.11-14.08-9.22-20.94-14.08-6.78-4.79-12.73-10.6-19.08-15.91-6.55-5.45-11.73-12.28-17.84-18.19-20.45-23.5-36.7-50.82-46.58-80.43-2.32-7.79-5.21-15.57-5.72-23.75Z" style="fill:#e83463;"/><path d="M1365.43,65c3.28,5.38,2.93,11.97,2.22,17.98-1.47,8.27-5.37,16.28-11.57,22.02,2.33-6.6,5.86-12.75,7.32-19.65,1.92-6.61,1.85-13.53,2.03-20.35Z" style="fill:#e83463;"/><path d="M1188.08,85.04c-.9-5.4-2.59-10.67-2.86-16.17,5.59,14.1,8.12,29.23,9.37,44.29,2.83,39.51-5.94,79.3-22.22,115.22-4.91,9.41-9.04,19.25-14.81,28.19-.15-.56-.45-1.7-.61-2.26,2.59-5.82,5.22-11.61,7.87-17.4,4.34-9.06,7.35-18.66,11.05-27.98,13.26-39.6,19.6-82.45,12.21-123.89Z" style="fill:#e83463;"/><path d="M1212.02,80.98c8.41-10.82,25-14.72,37.19-8.32-5.88,.53-11.81,.55-17.59,1.84-6.83,1.17-13.15,4.09-19.6,6.48Z" style="fill:#e83463;"/><path d="M1169.18,82.85c2.43,7.28,3.53,14.93,4.32,22.53,5.29,47.18-5.8,95.68-29.37,136.73-.88,1.52-2,2.88-3.17,4.17,3.85-10.96,9.5-21.24,12.95-32.36,11.4-31.98,17.64-65.93,17.09-99.92,.4-10.43-1.42-20.76-1.82-31.15Z" style="fill:#e83463;"/><path d="M1216.72,98.24c4.4-6.32,12.14-9.19,19.36-10.89,7.31-.85,15.82-1.44,22.05,3.21-8.45,.06-17.03-.15-25.25,2.15-5.63,1.16-10.63,4.12-16.16,5.53Z" style="fill:#e83463;"/><path d="M1394.63,101.92c.41-1.79,.27-3.98,1.95-5.17,2.03,14.27-3.84,29.47-15.39,38.22,.83-3.35,3.27-5.9,4.89-8.87,4.13-7.52,7.3-15.66,8.55-24.18Z" style="fill:#e83463;"/><path d="M1153.21,121.03c.35-6.39-.79-12.81,.17-19.16,6.38,28.01,3.17,57.39-4.86,84.72-3.14,9.5-7.03,18.72-11.3,27.76-1.21,2.42-2.73,4.65-4.32,6.83,.96-5.88,3.97-11.13,5.58-16.82,9.14-26.8,14.44-54.98,14.73-83.33Z" style="fill:#e83463;"/><path d="M1134.99,146c1.15-8.01,.81-16.11,1.45-24.15,2.2,6.48,2.68,13.38,2.69,20.18,.2,17.48-4.28,34.8-11.52,50.63-1.5,3.37-3.31,6.63-5.6,9.54,.64-4.6,2.46-8.89,3.76-13.32,4.06-14.05,7.63-28.31,9.22-42.88Z" style="fill:#e83463;"/><path d="M1236.08,148.08c15.74-4.99,33.02-5.89,49-1.49-5.97,1.07-12.05,.24-18.07,.65-12.73,.7-25.39,2.76-37.66,6.23-3.18,.97-6.33,2.08-9.63,2.5,4.6-4.09,10.66-5.9,16.36-7.89Z" style="fill:#e83463;"/><path d="M1289.13,191.1c7.72-1.99,14.48-6.35,21.9-9.1-12.43,11.84-29.75,16.63-46.41,18.55-14.03,1.22-28.2-.13-41.93-3.07-3.72-.86-7.57-1.48-10.94-3.37,9.77,.26,19.44,2.14,29.25,2.04,16.17,.55,32.54-.42,48.13-5.05Z" style="fill:#e83463;"/><path d="M1318.6,203.54c2.53-1.2,5.01-2.51,7.61-3.58-6.18,6.58-14.89,9.93-23.28,12.71-10.32,3.06-21.12,4.44-31.87,4.51-20.31,.54-40.75-2.09-60.21-7.91,3.07-.41,6.17-.09,9.23,.35,14.24,1.69,28.57,2.82,42.92,2.73,18.78,.23,38.27-.9,55.6-8.81Z" style="fill:#e83463;"/><path d="M1329.64,226.85c1.64-7.64,2.2-15.46,3.97-23.07,2.12,14.44,.94,29.13-1.63,43.43-.24,1.01-.47,2.02-.69,3.03-.07-.52-.2-1.56-.27-2.08-2.81,1.22-5.62,2.41-8.33,3.81,3.05-8.15,5.12-16.63,6.95-25.12Z" style="fill:#e83463;"/><path d="M1200.91,241.09c5.67,.73,10.96,3,16.46,4.47,20.68,5.67,42,10,63.55,9.46,11.29,.32,22.26-2.55,33.18-4.96-17.52,9.48-38.32,10.78-57.77,8.48-13.83-1.91-27.51-5.21-40.46-10.45-5.09-2.11-10.34-3.97-14.96-7Z" style="fill:#e83463;"/></g><g><path d="M1343.44,50.82c3.13,3.99,3.45,9.33,3.41,14.2-.46,5.61-2.16,11.73-6.91,15.21,.73-4.46,2.58-8.66,3.04-13.17,.62-5.39,.47-10.82,.46-16.24Z" style="fill:#e83462;"/><path d="M1377.54,73.9c2.34,6.3,1.44,13.33-.02,19.74-2.08,8.24-6.38,16.38-13.57,21.22,1.82-3.73,4.36-7.07,6.03-10.89,4.19-9.51,6.63-19.73,7.56-30.07Z" style="fill:#e83462;"/><path d="M1401.15,123.05c1.38-4.35,1.92-8.93,3.46-13.24,2.32,12.16-1.97,26.38-12.74,33.24,3.14-6.65,7.33-12.83,9.28-20Z" style="fill:#e83462;"/><path d="M1247.98,121.86c9.53-1.39,19.86-.08,28.16,5.03-10.67-1.23-21.59-2.24-32.17,.21-9.17,1.79-17.59,5.95-26,9.84,7.72-8.48,18.7-13.64,30.01-15.08Z" style="fill:#e83462;"/><path d="M1203.9,225.34c5.79,.22,11.35,2.07,17.05,2.97,25.01,4.41,50.59,8.07,75.97,4.8,8.49-.8,16.36-4.17,24.25-7.11-6.33,6.12-15.23,8.37-23.49,10.61-19.69,4.19-40.17,2.56-59.78-1.33-11.5-2.61-23.15-5.22-34-9.94Z" style="fill:#e83462;"/></g><g><path d="M266.06,59c5.02-5.44,12.74-7.84,20-6.77,4.94,.35,9.12,3.2,12.94,6.09-26.19,22.03-56.45,38.64-87.55,52.63-3.96-6.19-7.51-13.36-6.15-20.93,1.77-11.24,13.42-19.72,24.65-18.37,9.46,.74,17.4,6.32,24.88,11.64,2.09-8.69,4.82-17.74,11.23-24.29Z" style="fill:#f2d7ba;"/><path d="M219.2,118.68c30.04-13.7,59.22-29.91,84.73-51.04,2.05,7.65,1.96,15.72,.34,23.44-2.9,13.76-9.06,27.13-18.91,37.3-5.74,6.06-13.88,10.14-22.38,9.38-16.21-.87-31.81-8.29-43.78-19.08Z" style="fill:#f2d7ba;"/><path d="M227.65,264.64c5.79,2.92,10.99,6.94,15.24,11.86-5.88,.88-11.73-.34-17.34-2.02,1.28-3.12,1.95-6.47,2.1-9.84Z" style="fill:#f2d7ba;"/><path d="M233.68,329.6c7.44,2.82,14.25,7.32,19.53,13.3-7.64,.9-15.3-.68-22.32-3.7,1.36-3.06,2.3-6.3,2.79-9.6Z" style="fill:#f2d7ba;"/><path d="M1304.03,398c8.61-10.55,26.14-11.17,36.07-2.13,8.16,7.29,12.05,17.99,14.49,28.38,6.42-4.72,12.79-9.81,20.51-12.24,7.89-2.92,16.93-2.32,24.18,2.04-23.12,24.1-50.94,43.05-79.04,60.83-11.74-13.03-19.66-29.49-22.19-46.85-1.33-10.21-.75-21.67,5.98-30.03Z" style="fill:#f2d7ba;"/><path d="M174.22,402.49c3.06-1.29,5.96-2.96,8.59-4.99,3.64,6.43,5.95,13.58,6.56,20.96-6.74-3.4-11.52-9.52-15.15-15.97Z" style="fill:#f2d7ba;"/><path d="M108.06,406.33c2.46-.93,4.85-2.04,7.11-3.38,1.95,5.87,3.35,11.97,3.08,18.19-5.19-3.56-9.03-8.64-12.12-14.04,.48-.2,1.45-.58,1.93-.77Z" style="fill:#f2d7ba;"/><path d="M1328.66,481.6c27.83-17.75,55.27-36.76,78.16-60.73,2.17,4.06,4.23,8.39,4.2,13.1,.3,10-5.4,18.98-11.96,26.05-10.37,10.81-23.69,18.71-37.96,23.17-10.51,3.23-22.61,4.23-32.44-1.59Z" style="fill:#f2d7ba;"/><path d="M1280.2,576.32c4.25-.81,8.83,.49,12,3.46,5.62,5.07,7.79,12.88,8.17,20.21,.36,10.32-2.59,21.08-9.45,28.96-3.92,4.49-9.87,7.94-16.01,6.84-5.9-.95-10.24-5.92-12.48-11.18-4.12-9.76-3.45-21.07,.3-30.83,3.08-7.78,8.84-15.62,17.47-17.46Z" style="fill:#f2d7ba;"/><path d="M1350.17,598.2c4.47-1.3,9.64-.78,13.41,2.12,3.88,3.01,5.88,7.88,6.38,12.67,.93,8.39-1.6,16.86-5.84,24.05-4.04,6.77-9.91,12.75-17.35,15.66-4.9,1.92-10.91,1.93-15.24-1.34-4.76-3.52-6.62-9.68-6.77-15.36-.16-8.96,3.14-17.76,8.34-24.97,4.26-5.8,10.04-10.84,17.07-12.83Z" style="fill:#f2d7ba;"/><path d="M1211.39,621.62c4.4-1.58,9.31,.23,12.37,3.57,5.18,5.56,7.17,13.36,7.47,20.79,.2,7.95-1.5,16.33-6.48,22.71-2.74,3.54-7.14,6.24-11.76,5.5-5.55-.84-9.41-5.68-11.62-10.49-3.97-8.95-4.17-19.41-1.15-28.67,1.93-5.55,5.39-11.28,11.17-13.41Z" style="fill:#f2d7ba;"/><path d="M1284.41,670.65c9.29-1.61,19.55,1.95,25.32,9.54,7.95,10.5,7.86,24.35,8.46,36.9,.06,5.7,3.94,10.21,6.99,14.67,5.15,7.16,10.24,15.1,10.57,24.19,.47,6.75-2.12,14.02-7.84,17.95-5.78,4.06-13.49,4.09-19.99,1.91-8.25-2.5-14.54-8.69-21.96-12.79-9.04-5.47-19.31-8.95-29.88-9.59-9.35-.97-19.04,.96-28.11-2.11-6.49-2.04-12.6-6.69-14.71-13.36-2.12-6.66,.12-14.01,4.51-19.24,5.45-6.74,13.66-10.27,21.6-13.19,5.2-2.03,11.15-3.71,14.41-8.64,7.94-10.8,16.63-23.34,30.63-26.24Z" style="fill:#f2d7ba;"/><path d="M1383.42,670.54c4.21-1.11,9.27-.79,12.48,2.49,3.79,3.74,4.19,9.53,3.45,14.52-1.51,8.8-6.47,16.82-13.09,22.72-4.74,4.08-10.74,7.44-17.19,6.97-4.38-.21-8.25-3.42-9.57-7.54-1.85-5.79-.71-12.1,1.58-17.58,4.18-9.69,12.01-18.47,22.34-21.58Z" style="fill:#f2d7ba;"/><path d="M537.02,839.1c7.74-4.1,19.03-.15,21.36,8.61,2.33,9.11-2.03,18.26-7.07,25.63-5.63,7.71-13.08,15.1-22.7,17.2-9.7,1.38-18.44-4.71-25.28-10.87-7.19-6.98-13.87-16.21-13.41-26.69,.52-9.07,10.66-15.23,19.1-12.7,6.77,1.85,11.3,7.51,15.54,12.71,3.02-5.47,6.73-10.99,12.46-13.89Z" style="fill:#f2d7ba;"/></g><g><path d="M1211.01,65c6.81-9.91,21.42-14.41,32.15-8.36-5.89,.85-11.89,1.16-17.58,2.96-5.02,1.36-9.65,3.79-14.57,5.4Z" style="fill:#e93463;"/><path d="M1387.41,83.95c2.72,7.9,.81,16.58-2.31,24.06-2.92,5.75-6.09,12.27-12.3,15.04,2.27-4.72,5.74-8.76,7.72-13.63,3.87-7.98,5.72-16.72,6.89-25.47Z" style="fill:#e93463;"/><path d="M1194.83,250.88c6.95,2.54,13.24,6.56,20.12,9.28,8.87,3.88,18.06,6.95,27.37,9.59-4.34-.18-8.69,.08-12.96,.82-1.25-.4-2.49-.78-3.71-1.15-10.56-5.62-22.01-10.21-30.82-18.54Z" style="fill:#e93463;"/></g><path d="M1354.35,55.98c4.28,7.83,3.86,17.37,1.28,25.67-1.48,4.12-3.02,8.49-6.44,11.41,1.29-6.18,3.49-12.16,4.37-18.43,1.03-6.17,.66-12.43,.79-18.65Z" style="fill:#e83562;"/><g><path d="M18.31,96.64c20.64,20.57,40.96,41.48,60.5,63.09-17.37,7.33-34.36,15.65-50.49,25.44,.59-13.7-5.64-26.21-7.93-39.46-3.18-16.12-3.56-32.72-2.08-49.07Z" style="fill:#717171;"/><path d="M27.75,197.51c18.39-11.79,38.11-21.38,58.27-29.76,1.34,1.51,2.67,3.02,4.01,4.53-4.14,14.86-11.02,28.74-18.56,42.14-4.94,8.22-10.26,16.25-16.52,23.53-4.4,5.4-9.82,10.45-16.63,12.49-4.81,1.52-9.71-1.48-12.51-5.26-3.12-4.35-3.17-10.01-2.87-15.14,.91-10.94,4.11-21.56,4.81-32.53Z" style="fill:#717171;"/><path d="M795.32,175.87c20.55,12.45,43.32,21.12,66.88,25.79,20.02,3.79,40.52,4.8,60.84,3.33,16.87-1.25,33.65,9.58,39.57,25.4-1.96,5.17-2.57,10.87-5.6,15.61-5.31,9.28-15.31,14.56-25.11,17.87-11.92,3.7-24.49,4.43-36.87,5.06-23.65-.81-47.38-3.33-70.22-9.78-18.55-5.36-36.86-11.92-53.84-21.2-.21-11.66,2.91-23.15,6.98-33.99,3.95-10.37,10.41-19.54,17.37-28.09Z" style="fill:#717171;"/><path d="M37.03,300.06c9.13-5.21,19.24-9.8,30-9.31,4.92,.19,10.68,1.16,13.57,5.64,4.04,6.36,4.37,14.26,4.07,21.57-1.08,16.99-5.83,33.57-12.49,49.18-1.95,4.9-4.56,9.5-7.38,13.95-18.44-20.49-32-44.81-43.58-69.68,5.31-3.73,10.14-8.15,15.81-11.35Z" style="fill:#717171;"/></g><path d="M1415.61,121.61c7.34,15.5,11.88,32.21,14.1,49.19,4.82,18.15,6.13,37.83-.02,55.83-1.89,5.87-5.09,11.17-8.22,16.44-1.87,3.48-3.31,7.15-4.81,10.79-13.27,30.04-36.41,55.52-64.79,71.99-32.74,19.25-72.5,25.93-109.76,18.67-8.73-.6-17.55-.45-26.13-2.44-21.09-4.04-40.84-15.87-53.18-33.62-3.35-4.52-5.07-10.11-9.01-14.21-8.11-8.94-15.03-18.95-20.82-29.53-1.88-3.47-3.64-6.99-5.26-10.58-.32-.74-.95-2.2-1.27-2.93,9.35,2.39,18.55,5.33,27.97,7.47,.85-1.45,1.71-2.9,2.54-4.37,.16,.56,.46,1.7,.61,2.26-.14,.99-.27,1.98-.38,2.98,5.69,1.12,11.32,2.6,17.06,3.55-3.81,9.34-9.91,17.56-13.33,27.06,2.44-2.68,4.69-5.52,6.78-8.48,4.05-5.78,8.59-11.26,11.61-17.69,.06-.11,.19-.34,.25-.46,4.96,2.08,10.35,2.52,15.63,3.15-2.55-3.48-5.24-6.86-7.48-10.56,5.34,3.34,10.52,6.93,15.56,10.71-2.19,.03-4.37,.17-6.54,.29,4.44,5.44,10.21,9.47,15.63,13.85-3.2,7.05-7.23,13.68-11.06,20.4-3.31,5.87-7.84,10.89-11.55,16.48,14.02-6.33,21.2-21.43,24.37-35.7,14.19,8.51,30.25,14.41,46.93,14.85,12.04,.48,24.23-1.77,35.14-6.93-9.06-.25-18.13,.87-27.18,.05-21.95-1.45-43.29-9.27-61.65-21.23,6.11-.29,12.19,.56,18.3,.53,1.22,.37,2.46,.75,3.71,1.15,24.69,9.15,53.02,11.95,77.8,1.62-9.05,1.07-18.06,2.79-27.2,2.65-11.55-.31-23.18-1.25-34.3-4.53,9.73-1.52,19.65-1.42,29.34-3.32,16.36-2.44,32.11-7.78,47.3-14.23-5.05,15.43-13.04,29.83-22.79,42.78-14.79,19.12-34.35,34.02-55.55,45.4,17.76-3.42,33.84-12.9,47.52-24.47,20.13-16.89,33.82-40.76,39.81-66.23,.22-1.01,.45-2.02,.69-3.03,5.2-2.84,10.13-6.15,15.15-9.3-7.79,33.91-25.87,65.23-50.86,89.38-3.99,4.17-8.7,7.59-12.52,11.93,6.91-3.15,12.47-8.42,18.22-13.24,26.49-23.09,44-56.02,48.66-90.83-1.01,.2-2.01,.41-3,.62,1.55-7.28,2.16-14.74,4.02-21.95,.93,6.78-.15,13.57-.59,20.35,6.61-4.6,12.41-10.41,17.39-16.72l.33,.18c13.69,8.28,28.25,15.14,43.4,20.27-7.44-5.94-16.3-9.68-24.22-14.88-4.89-3.29-9.9-6.41-14.48-10.12,2.45-2.79,4.43-5.94,6.6-8.95,12.12,7.37,24.74,13.91,38.04,18.88-5.37-3.85-11.57-6.28-17.23-9.63-6.41-3.51-12.35-7.79-18.6-11.58l.26-.33c2.15-3.48,4.15-7.06,6.35-10.52,8.32,5.01,17,9.74,26.39,12.41-7.66-5.17-16.3-8.73-23.68-14.35-.21-.13-.64-.41-.86-.55,2.54-4.68,4.83-9.49,7.28-14.22,7.07,3.66,14.61,6.54,22.45,8.07-6.65-4.19-14.26-6.5-21.02-10.48l.26-.53c1.18-2.68,2.17-5.44,3.29-8.15,7.96,3.8,16.54,6.12,25.14,7.97-7.47-5.1-15.88-8.59-23.67-13.14l.03-.13c2.69-4.09,3.82-8.89,4.72-13.63-2.46,2.8-5.01,5.62-8.34,7.42,1.77-4.83,4.77-9.09,6.64-13.88,2.01-4.96,2.73-10.33,4.56-15.36,.51,2.2,.98,4.41,1.45,6.63,.65-2.42,1.34-4.83,2.07-7.24Zm-47.29,115.37c-5.34,29.15-17.75,56.95-35.86,80.4-2.58,3.27-5.58,6.23-7.52,9.95,1.27-.79,2.57-1.59,3.73-2.57,26.72-24.47,42.79-60.66,41.75-96.99-1.38,2.89-1.59,6.1-2.1,9.21Zm20.15-4.02c-2.12,8.25-3.24,16.74-5.56,24.96-3.02,11.73-6.91,23.23-11.65,34.38-1.79,4.27-4.43,8.22-5.34,12.82,6.21-6.25,10.32-14.24,14-22.16,6.51-15.71,10.43-32.94,8.55-50Zm-201.31,51.19c-4.32,7.03-9.64,13.36-14.31,20.14,5-1.58,8.91-5.28,12.23-9.2,5.82-7.24,10.34-15.86,11.65-25.14-4.11,4.06-6.37,9.48-9.57,14.2Zm36.14,26.15c-4.22,6.31-9.62,11.68-14.22,17.7,6.99-2.15,12.49-7.38,16.89-13.04,4.36-6.2,8.08-13.37,7.98-21.15-3.92,5.25-6.66,11.28-10.65,16.49Zm24.8,5.63c-5.3,7.64-12.15,14-19.13,20.06,10.22-1.97,18.36-9.73,23.73-18.3,3.06-5.49,6.12-11.35,6.3-17.77-3.99,5.09-6.89,10.93-10.9,16.01Z" style="fill:#f03667;"/><path d="M1100.37,202.43c4.25-1.97,9.09-1.88,13.66-2.46,.66,9.54,2.22,19.01,4.57,28.28-9.43-1.7-16.3-9.48-19.94-17.9-1.05-2.62-1.38-6.57,1.71-7.92Z" style="fill:#fdeddd;"/><g><path d="M1404.48,157.8c7.79,4.55,16.2,8.04,23.67,13.14-8.6-1.85-17.18-4.17-25.14-7.97,.5-1.72,.99-3.44,1.47-5.17Z" style="fill:#d22e59;"/><path d="M1368.32,236.98c.51-3.11,.72-6.32,2.1-9.21,1.04,36.33-15.03,72.52-41.75,96.99-1.16,.98-2.46,1.78-3.73,2.57,1.94-3.72,4.94-6.68,7.52-9.95,18.11-23.45,30.52-51.25,35.86-80.4Z" style="fill:#d22e59;"/><path d="M1388.47,232.96c1.88,17.06-2.04,34.29-8.55,50-3.68,7.92-7.79,15.91-14,22.16,.91-4.6,3.55-8.55,5.34-12.82,4.74-11.15,8.63-22.65,11.65-34.38,2.32-8.22,3.44-16.71,5.56-24.96Z" style="fill:#d22e59;"/><path d="M1347.63,235.77c.99-.21,1.99-.42,3-.62-4.66,34.81-22.17,67.74-48.66,90.83-5.75,4.82-11.31,10.09-18.22,13.24,3.82-4.34,8.53-7.76,12.52-11.93,24.99-24.15,43.07-55.47,50.86-89.38,.12-.54,.38-1.61,.5-2.14Z" style="fill:#d22e59;"/><path d="M1174.24,263.1l.46,.07c1.52,.25,3.05,.53,4.6,.82-3.02,6.43-7.56,11.91-11.61,17.69-2.09,2.96-4.34,5.8-6.78,8.48,3.42-9.5,9.52-17.72,13.33-27.06Z" style="fill:#d22e59;"/><path d="M1187.16,284.15c3.2-4.72,5.46-10.14,9.57-14.2-1.31,9.28-5.83,17.9-11.65,25.14-3.32,3.92-7.23,7.62-12.23,9.2,4.67-6.78,9.99-13.11,14.31-20.14Z" style="fill:#d22e59;"/><path d="M1229.36,270.57c4.27-.74,8.62-1,12.96-.82,1.1,.19,2.21,.37,3.34,.56,11.12,3.28,22.75,4.22,34.3,4.53,9.14,.14,18.15-1.58,27.2-2.65-24.78,10.33-53.11,7.53-77.8-1.62Z" style="fill:#d22e59;"/><path d="M1223.3,310.3c3.99-5.21,6.73-11.24,10.65-16.49,.1,7.78-3.62,14.95-7.98,21.15-4.4,5.66-9.9,10.89-16.89,13.04,4.6-6.02,10-11.39,14.22-17.7Z" style="fill:#d22e59;"/><path d="M1248.1,315.93c4.01-5.08,6.91-10.92,10.9-16.01-.18,6.42-3.24,12.28-6.3,17.77-5.37,8.57-13.51,16.33-23.73,18.3,6.98-6.06,13.83-12.42,19.13-20.06Z" style="fill:#d22e59;"/></g><path d="M1398.03,174.06c.47-.8,.95-1.6,1.43-2.41,6.76,3.98,14.37,6.29,21.02,10.48-7.84-1.53-15.38-4.41-22.45-8.07Z" style="fill:#d72f5b;"/><path d="M1388.9,190.77c.89-.65,1.79-1.29,2.71-1.94,7.38,5.62,16.02,9.18,23.68,14.35-9.39-2.67-18.07-7.4-26.39-12.41Z" style="fill:#d62f5b;"/><path d="M1380.08,203.95c.73-.77,1.48-1.53,2.21-2.33,6.25,3.79,12.19,8.07,18.6,11.58,5.66,3.35,11.86,5.78,17.23,9.63-13.3-4.97-25.92-11.51-38.04-18.88Z" style="fill:#d12e59;"/><g><path d="M1373.11,213.31l.37-.41c4.58,3.71,9.59,6.83,14.48,10.12,7.92,5.2,16.78,8.94,24.22,14.88-15.15-5.13-29.71-11.99-43.4-20.27,1.43-1.44,2.91-2.85,4.33-4.32Z" style="fill:#d32e59;"/><path d="M1322.69,251.97c2.71-1.4,5.52-2.59,8.33-3.81,.07,.52,.2,1.56,.27,2.08-5.99,25.47-19.68,49.34-39.81,66.23-13.68,11.57-29.76,21.05-47.52,24.47,21.2-11.38,40.76-26.28,55.55-45.4,9.75-12.95,17.74-27.35,22.79-42.78,.1-.2,.29-.6,.39-.79Z" style="fill:#d32e59;"/><path d="M1196.72,267.12c2.17-.12,4.35-.26,6.54-.29,1.35,.69,2.71,1.38,4.09,2.06,18.36,11.96,39.7,19.78,61.65,21.23,9.05,.82,18.12-.3,27.18-.05-10.91,5.16-23.1,7.41-35.14,6.93-16.68-.44-32.74-6.34-46.93-14.85-3.17,14.27-10.35,29.37-24.37,35.7,3.71-5.59,8.24-10.61,11.55-16.48,3.83-6.72,7.86-13.35,11.06-20.4-5.42-4.38-11.19-8.41-15.63-13.85Z" style="fill:#d32e59;"/></g><path d="M957.01,246c3.03-4.74,3.64-10.44,5.6-15.61,.93,2.52,1.68,5.12,2.19,7.77,1.5,9.05-.09,18.58-4.62,26.58-6.31,11.22-18.27,19.05-31.12,20.11-43.43,3.3-87.73-2.15-128.51-17.71-10.32-3.9-20.38-8.46-30.2-13.48,1.37-5.14,.83-10.47,.62-15.71,16.98,9.28,35.29,15.84,53.84,21.2,22.84,6.45,46.57,8.97,70.22,9.78,12.38-.63,24.95-1.36,36.87-5.06,9.8-3.31,19.8-8.59,25.11-17.87Z" style="fill:#666;"/><g><path d="M1263.21,550.24c11.25-9.42,28.53-9.99,40.77-2.13,8.92,5.58,15.13,14.56,19.29,24.07,12.61-5.86,26.85-9.5,40.77-7.02,12.62,2.19,24.04,11.04,28.76,23.03,6.13,16.27,.31,34.27-8.17,48.57,8.68-.52,17.73,.08,25.66,3.99,5.72,2.81,11.19,7.27,13.03,13.63,2.83,9.61,1.51,19.9-.71,29.51-4.53,18.4-13.22,35.48-23.12,51.54-15.53,24.84-34.43,47.41-54.7,68.49-2.63,2.42-2.5,6.25-3.16,9.5-5.75,33.89-12.17,67.66-19.02,101.34-12.68-2.84-25.71-3.63-38.59-5.07-21.71-1.75-43.77-3.05-65.31,.98-6.69,1.62-13.74,3.28-19.07,7.91-27.41-8.76-54.63-18.42-80.5-31.09,4.78-11.64,9.57-23.27,14.51-34.84,21.53,5.17,43.42,8.85,65.39,11.58,14.06,1.43,28.25,2.6,42.37,1.26,7.28-.92,15.07-2.28,20.86-7.17,4.14-3.58,4.52-9.74,3.1-14.69-2.1-7.08-6.86-12.94-11.71-18.34-10.89-10.75-23.69-19.24-36.53-27.45-15.22-9.29-31.27-17.06-47.22-24.96,3.48-7.11,7.13-14.14,10.85-21.12,1.7-2.68,.61-5.9,.36-8.79-2.97-23.21-4.51-46.6-4.63-69.99,.18-19.35,1.14-38.87,5.74-57.74,2.45-9.71,5.96-19.64,13.06-26.99,4.85-5.12,11.7-8.26,18.76-8.49,9.92-.47,19.42,3.42,27.78,8.43,3.7-14.12,9.85-28.47,21.38-37.95Zm16.99,26.08c-8.63,1.84-14.39,9.68-17.47,17.46-3.75,9.76-4.42,21.07-.3,30.83,2.24,5.26,6.58,10.23,12.48,11.18,6.14,1.1,12.09-2.35,16.01-6.84,6.86-7.88,9.81-18.64,9.45-28.96-.38-7.33-2.55-15.14-8.17-20.21-3.17-2.97-7.75-4.27-12-3.46Zm69.97,21.88c-7.03,1.99-12.81,7.03-17.07,12.83-5.2,7.21-8.5,16.01-8.34,24.97,.15,5.68,2.01,11.84,6.77,15.36,4.33,3.27,10.34,3.26,15.24,1.34,7.44-2.91,13.31-8.89,17.35-15.66,4.24-7.19,6.77-15.66,5.84-24.05-.5-4.79-2.5-9.66-6.38-12.67-3.77-2.9-8.94-3.42-13.41-2.12Zm-138.78,23.42c-5.78,2.13-9.24,7.86-11.17,13.41-3.02,9.26-2.82,19.72,1.15,28.67,2.21,4.81,6.07,9.65,11.62,10.49,4.62,.74,9.02-1.96,11.76-5.5,4.98-6.38,6.68-14.76,6.48-22.71-.3-7.43-2.29-15.23-7.47-20.79-3.06-3.34-7.97-5.15-12.37-3.57Zm73.02,49.03c-14,2.9-22.69,15.44-30.63,26.24-3.26,4.93-9.21,6.61-14.41,8.64-7.94,2.92-16.15,6.45-21.6,13.19-4.39,5.23-6.63,12.58-4.51,19.24,2.11,6.67,8.22,11.32,14.71,13.36,9.07,3.07,18.76,1.14,28.11,2.11,10.57,.64,20.84,4.12,29.88,9.59,7.42,4.1,13.71,10.29,21.96,12.79,6.5,2.18,14.21,2.15,19.99-1.91,5.72-3.93,8.31-11.2,7.84-17.95-.33-9.09-5.42-17.03-10.57-24.19-3.05-4.46-6.93-8.97-6.99-14.67-.6-12.55-.51-26.4-8.46-36.9-5.77-7.59-16.03-11.15-25.32-9.54Zm99.01-.11c-10.33,3.11-18.16,11.89-22.34,21.58-2.29,5.48-3.43,11.79-1.58,17.58,1.32,4.12,5.19,7.33,9.57,7.54,6.45,.47,12.45-2.89,17.19-6.97,6.62-5.9,11.58-13.92,13.09-22.72,.74-4.99,.34-10.78-3.45-14.52-3.21-3.28-8.27-3.6-12.48-2.49Z" style="fill:#b9723e;"/><path d="M115.69,680.63c3.76-6.87,10.72-11.92,18.32-13.6,3.7,1.9,5.96,5.69,7.74,9.3,2.54,5.49,4.02,11.8,2.45,17.78-1.92-1.23-3.81-2.5-5.67-3.79-5.34,2.79-8.71,8.34-10.14,14.04-.98,5.25,2.89,9.5,5.72,13.43-4.3,.03-8.7-.06-12.87,1.11-2.15,1.6-3.4,4.29-5.89,5.48-1.42,.49-2.95,.52-4.43,.74,3.43-5.07,5.97-11.07,4.69-17.32-1.38-.51-2.77-1.02-4.15-1.52-1.1-8.68-.22-17.96,4.23-25.65Z" style="fill:#b9723e;"/><path d="M198.32,676.32c3.93-4.32,10.31-4.26,15.6-3.21-.04,2.3,.25,4.75-.77,6.91-1.38,3.07-3.99,5.31-6.18,7.79,5.72,9.13,10.42,19.9,8.57,30.91-.73,3.39-1.71,7-4.06,9.65-3.67,2.28-7.33,4.61-10.45,7.64-8.71-4.09-15.23-12.43-17.44-21.74-1.55-7.61-.72-15.49,.99-22.99-2.89-1.23-6.17-2.08-8.31-4.54-1.69-1.87-2.36-4.35-3.19-6.66,4.32-2.57,9.55-4.13,14.53-2.67,3.19,.92,4.76,4.07,6.88,6.34,2.07-1.83,1.56-5.56,3.83-7.43Z" style="fill:#b9723e;"/><path d="M241.4,687.36c1.97-.41,3.22,1.67,4.45,2.86,2.7,2.92,3.03,7.01,3.38,10.78,8.45,1.24,17.27,2.38,24.58,7.16,7.77,4.94,13.06,13.67,13.38,22.92,.18,1.65-1.41,2.69-2.58,3.52-8.74,5.18-19.97,5.29-28.94,.64-.52-5.48-.55-11.41-4.65-15.65-3.38,.93-6.67,2.16-9.89,3.54-.85-.58-1.7-1.15-2.54-1.72-2.71,1.54-5.36,3.58-8.59,3.73-2.41,.23-4.71-.61-6.95-1.34,.53-4.74,2.01-9.76,5.93-12.82,3.07-2.42,7.2-1.95,10.86-2.2-1.96-2.3-4.46-4.56-4.82-7.74-.92-5.34,2.16-10.63,6.38-13.68Z" style="fill:#b9723e;"/><path d="M133.44,710c.14-4.85,3.03-9.1,6.49-12.28,2.03,1.28,4.39,2.39,5.57,4.61,1.67,2.85,1.6,6.26,1.9,9.45,9.66,1.26,19.86,2.86,27.67,9.21,6.91,5.29,10.75,14.07,10.78,22.69-8.5,6.12-20.15,7.35-29.75,3.22-7.54-3.13-13.68-8.82-18.9-14.96-4.04,3.83-10,5.22-15.18,2.91-.12-4.9,1.61-10.08,5.64-13.09,2.86-2.4,6.81-1.88,10.27-2.01-2.03-2.94-4.56-5.98-4.49-9.75Z" style="fill:#b9723e;"/><path d="M96.74,715.79c4.06-3.05,9.51-3.12,14.23-1.82,.88,5.81-2.5,10.97-7.11,14.16,3,5.81,6.47,11.48,7.92,17.93,3.18,10.6-.36,22.77-8.56,30.15-1.08,1.06-2.71,1.4-4.11,.76-8.25-3.05-14.69-10.03-17.6-18.27-2.95-8.64-1.41-17.86-.43-26.67-2.57-1.46-5.67-2.13-7.78-4.33-1.74-1.8-2.29-4.32-3.14-6.6,3.95-2.79,8.98-4.27,13.75-3,3.55,.89,5.7,4.08,7.9,6.74,1.12-3.24,2.01-6.92,4.93-9.05Z" style="fill:#b9723e;"/><path d="M238.48,735.34c2.55-4.11,6.92-6.72,11.43-8.2,1.28,2.44,2.89,4.93,2.83,7.79-.08,2.88-1.22,5.59-2.07,8.31,4.91,3.28,9.96,6.4,14.2,10.56-1.94,1.68-4.66,2.86-5.72,5.29-1.19,6.68-.23,13.81,2.91,19.86,1.8,3.68,5.18,6.24,7.19,9.79-4.31,.85-8-1.34-11.54-3.42-2.94-1.97-6.99,.28-9.63-2.39-6.17-5.07-11.32-12.09-13.13-19.93,.93-5.9,1.66-11.84,1.2-17.83,.88,.5,1.76,1.01,2.64,1.53-.75-3.71-1.88-7.72-.31-11.36Z" style="fill:#b9723e;"/><path d="M199.31,752.26c3.31-8.78,11.45-15.09,20.44-17.25,7.15,6.12,11.16,15.68,10.18,25.07-.9,9.23-5.66,17.47-10.95,24.88,3.98,3.03,7.07,7.84,5.97,13.04-.13,2.04-2.47,1.78-3.94,1.85-4.07-.21-8.68-1.13-11.26-4.59-2.06-2.56-2.51-5.9-3.02-9.02-2.28,3.28-5.24,6.58-9.41,7.21-4.46,.54-8.7-1.46-12.43-3.67,.54-6.28,6.6-9.73,12.2-10.8-.95-8.93-1.58-18.31,2.22-26.72Z" style="fill:#b9723e;"/><path d="M65.32,747.34c1.27-1.04,2.56,.01,3.42,.98,2.69,2.86,4.77,6.65,4.4,10.71-.09,3.81-2.77,6.77-4.96,9.64,3.24-.07,6.86-.47,9.69,1.48,4.46,3.09,6.41,8.77,6.12,14.04-5.01-5.48-10.49-11.36-18.08-12.96-4.36,.56-7.79,3.91-11.13,6.53-5.63,4.67-7.9,11.87-9.47,18.75-6.81,1.19-14.14,1.06-20.32-2.37-1.95-1.24-5.47-2.2-4.92-5.12,.88-9.7,6.98-18.79,15.58-23.36,7.02-4.13,15.29-4.76,23.19-5.76,.77-4.66,1.7-10.34,6.48-12.56Z" style="fill:#b9723e;"/><path d="M163.01,755.39c4.83,1.41,9.87,1.51,14.85,1.72-.94,4.39-3.72,7.99-7.45,10.41,3.54,6.08,7.28,12.36,8.37,19.41-.35,3.19-.15,6.33,.63,9.43-.57,8.01-4.72,16.11-11.49,20.6-1.71-.26-2.57-2.1-3.77-3.16-2.42-3.03-5.53-5.47-9.23-6.69-4.1-1.12-5.25-5.72-6.63-9.2-3.05-8.63-1.53-17.8-.33-26.6-5.26-1.55-10.51-5.31-11.08-11.18,4.34-2.42,9.56-4.39,14.5-2.55,3.48,1.09,5.33,4.4,7.17,7.27,.84-3.42,1.98-6.86,4.46-9.46Z" style="fill:#b9723e;"/><path d="M267.27,763.26c6.53-5.21,15.8-6.43,23.82-4.51,9.91,2.76,17.97,9.92,24.02,18.02,2.78-1.62,5.63-3.49,8.93-3.64,2.49-.29,4.72,.98,6.91,1.97-1.13,4.48-2.3,9.69-6.54,12.29-3.03,2.09-6.87,1.72-10.36,1.79,1.79,3.01,4.42,6.06,3.82,9.84-.27,4.93-3.65,8.81-7.2,11.91-2.33-1.91-4.98-3.83-5.92-6.83-.76-2.55-.77-5.24-1-7.85-9.51-1.35-19.42-3.66-26.84-10.14-6.32-5.67-10.3-14.32-9.64-22.85Z" style="fill:#b9723e;"/><path d="M120.65,768.59c2.43-.82,5.59-3.38,7.95-1.21,6.07,6.15,9.54,14.93,8.71,23.6-.35,9.36-5.62,17.43-10.55,25.04,1.78,2.27,3.94,4.35,5.09,7.04,.08,2.78-1.25,5.33-2.08,7.92-4.27,.09-8.97-.51-12.07-3.76-2.51-2.35-2.74-5.96-3.5-9.09-2.49,2.54-4.84,5.65-8.51,6.47-4.93,1.15-9.84-1.25-13.61-4.26,1.68-5.64,6.89-8.85,12.37-10.03-.57-7.88-1.49-16.11,1.19-23.71,1.73-3.43,5.3-5.42,7.4-8.59,2.53-3.16,3.37-7.96,7.61-9.42Z" style="fill:#b9723e;"/><path d="M51.59,798.71c2.12-7.25,6.52-14.31,13.48-17.72,1.35-.75,2.72,.43,3.92,.95,9.12,5.12,14.3,15.8,14.13,26.08,.36,7.11-2.38,13.74-4.02,20.52,2.12,1.17,4.2,2.44,6.18,3.86-2.99,1.12-6.23,1.42-9.2,2.58-1.58,1.71-2.78,3.71-4.14,5.59-1.74-2.3-3.21-4.77-4.43-7.37-1.2,3.01-2.13,6.54-5.1,8.32-4.26,3.06-10.05,2.69-14.71,.8-1.29-3.97,1.35-8.62,4.74-10.86,1.41-1.31,4.4-2.41,2.9-4.77-3.78-8.74-5.83-18.54-3.75-27.98Z" style="fill:#b9723e;"/><path d="M254.27,793.41c7.82,3.12,13.46,10.51,15.91,18.42,2.64,9.91,.26,20.19-3.02,29.64,4.26,2.07,8.95,5.36,9.1,10.6,.32,2.25-2.29,2.93-3.96,3.36-4.76,1.1-10.98,.5-13.76-4.06-1.1-1.61-2.03-3.32-2.99-5-1.27,2.88-2.21,6.24-4.89,8.18-4.14,2.56-9.62,2.85-14.01,.73-2.25-1.3-.75-4.15-.24-5.99,1.11-3.68,4.98-5.02,7.58-7.39-.19-2.69-1.54-5.1-2.37-7.62-3.13-8.81-4.15-18.97,0-27.63,2.65-5.56,6.72-11.02,12.66-13.24Z" style="fill:#b9723e;"/><path d="M197.39,798.42c2.43-1.1,4.36-3.01,6.69-4.26,3.23,.99,3.11,5.32,5.21,7.58,4.37,4.84,11.51,5.55,17.63,4.8,4.1,5.04,6.87,11.67,5.92,18.22-6.37,5.4-15.77,6.66-23.81,4.95-9.93-2.1-17.57-9.2-24.22-16.41-.93,.46-1.86,.93-2.79,1.42,2.31-5.16,3.57-10.68,4.13-16.28,3.7,.55,7.63,1.44,11.24-.02Z" style="fill:#b9723e;"/><path d="M147.05,818.92c2.5-1.47,5.86-4.06,8.57-1.58,8.77,7.25,12.43,19.74,9.42,30.68-1.16,6.15-4.46,11.51-7,17.13,1.82,2.75,4.91,4.59,6.04,7.82,.97,2.08,.66,4.43,.62,6.67-4.13,.5-8.61,1.14-12.45-.88-3.21-1.41-4.74-4.74-6.58-7.48-.41,.24-.82,.49-1.22,.76-1.41,.86-2.83,1.71-4.25,2.56-4.6-2.94-9.92-4.14-15.27-4.76,1.74-4.36,6.15-6.27,10.14-8.06-.73-5.6-2.24-11.13-1.97-16.81,.23-10.16,4.99-20.74,13.95-26.05Z" style="fill:#b9723e;"/><path d="M32.15,831.97c-.87-5.49,2.88-10.33,6.58-13.94,4.88,2.42,7.41,7.62,7.66,12.91,.68,2.38-1.13,4.25-2.22,6.16-1.31,2.06-2.05,4.44-2.34,6.87-.09,1.43-.62,3.43,1.19,4.05,5.91,2.84,13.82,3.44,19.24-.82,2.94-2.24,3.97-5.97,5.33-9.24,1.84,2.99,4.14,6.23,3.08,9.95-.98,5.02,.27,10.01,1.38,14.89-3.01,.06-6.04,.01-9.01,.52-3,.46-5.16,2.79-7.75,4.14-7.97-2.53-13.22-9.3-19.31-14.53-3.06,.92-5.59,3.5-8.98,3.33-2.05-.15-5.41,.27-6.18-2.21-.38-4.28,1.8-8.46,4.81-11.37,3.02-2.84,7.45-2.44,11.26-3.04-2.07-2.2-4.37-4.52-4.74-7.67Z" style="fill:#b9723e;"/><path d="M296.28,822.31c6.81-3.85,15.1-4.14,22.51-1.99,2.45,8.15,1.97,17.44-2.79,24.7-4.88,8.88-14.2,13.67-22.91,18.03,1.01,4.68,2.17,10.62-1.83,14.27-1.21,1.53-2.96,.33-4.27-.35-3.67-2.3-7.04-5.85-7.5-10.34-.65-4.69,4.26-8.6,2.19-13.29-.76-3.65-5.26-6.74-2.98-10.64,3.83-8.19,9.31-16.2,17.58-20.39Z" style="fill:#b9723e;"/><path d="M171.1,825.98c1.79-2.43,4.37-4.14,6.85-5.78,2.87,8.41,.89,17.97-2.93,25.82-1.64,3.8-5.34,5.97-8.15,8.82,1.72-5.46,3.97-10.8,4.64-16.53,.74-4.11-.12-8.23-.41-12.33Z" style="fill:#b9723e;"/><path d="M186.38,839.34c1.68-3.29,4.61-7.57,8.65-7.44,4.57,3.35,4.83,9.49,4.25,14.64,11.01,2.28,22.6,7.06,28.84,16.95-8.22,4.38-8.77,15.1-8.4,23.35-10.35,.37-20.2-5-26.81-12.72-2.47-2.96-4.61-6.17-6.89-9.27-4.95,2.44-11.08,3.54-15.86,.1,1.32-4.4,3.15-9.09,7.24-11.63,3.41-2.2,7.64-1.23,11.37-.58-2.4-3.98-4.7-8.83-2.39-13.4Z" style="fill:#b9723e;"/><path d="M81.22,842.22c8.54-1.41,17.86,.33,24.53,6.07,7.69,6.14,11.7,15.5,14.48,24.67,2.91-.01,5.84-.27,8.74,.15,2.73,.58,4.57,2.86,6.4,4.79-2.49,4.18-6.17,8.32-11.27,8.97-5.19,.97-8.41-4.09-12.81-5.76-2.46,2.28-5.01,4.65-6.33,7.82-2.07,4.11-1.84,8.8-2.32,13.25-3.7-4.42-2.28-10.38-.42-15.24-7.73-4.68-15.79-9.93-19.96-18.27-4.59-7.97-4.71-18.11-1.04-26.45Z" style="fill:#b9723e;"/><path d="M715,924.76c37.41-19.37,74.95-38.46,112.35-57.85,4.21,11.24,8.17,22.59,11.92,34-41.42,7.93-82.79,16.18-124.27,23.85Z" style="fill:#b9723e;"/><path d="M57.37,872.41c4.09-3.16,9.56-2.98,14.36-2.01,.07,2.69-.01,5.49-1.35,7.92-1.19,2.64-4.07,4.08-5.28,6.65,4.34,8.94,9.75,18.32,8.45,28.68-1.91,4.77-6.31,8.23-7.65,13.32-1.03,2.43-.99,5.97-3.93,7-7.27-1.86-13.75-6.91-17.29-13.55-5-8.65-4.57-19.18-3.01-28.71,0-1.24,1.05-3.23-.74-3.66-3.57-1.44-7.16-3.43-8.89-7.06-.5-1.2-1.64-3.23,0-4.05,3.68-2.33,8.32-3.63,12.62-2.55,3.74,1.05,5.88,4.52,8.06,7.45,.76-3.42,1.53-7.34,4.66-9.43Z" style="fill:#b9723e;"/><path d="M231.28,872.34c8.84-1.54,18.56,.99,25.05,7.31,6.89,6.02,10.53,14.74,13.02,23.34,2.87,.05,5.76-.09,8.62,.26,2.8,.47,4.66,2.84,6.55,4.75-2.14,3.51-4.97,6.85-8.79,8.55-3.98,1.42-8.06-.25-11.77-1.66,.34,3.47,1.56,7.34-.53,10.53-2.27,3.95-6.47,7.36-11.17,7.46-4.12-4.32-2.84-10.7-.69-15.61-6.19-3.93-12.79-7.69-17.09-13.83-5.77-6.86-7.95-16.34-6.05-25.07,.63-2.08,1.02-4.67,2.85-6.03Z" style="fill:#b9723e;"/><path d="M182.35,887.34c10.84-2.24,22.44,2.55,29.15,11.23,4.7,5.56,6.92,12.56,9.52,19.23,4.44-1.03,9.54-1.25,13.16,2.01,3.61,2.27-.65,5.95-2.48,7.91-3.98,4.57-10.57,4.01-15.58,1.66-4.02,2.21-8.82,1.29-13.2,1.51-2.43,.2-2.41-2.99-3.41-4.5-2-5.71-6.76-10.19-12.4-12.25-1.04,.59-2.08,1.2-3.11,1.81-5.34-7.39-6.48-17.33-3.76-25.93,.37-1.08,.91-2.34,2.11-2.68Z" style="fill:#b9723e;"/><path d="M109.68,889.7c1.25-1.37,2.57,.14,3.62,.93,3,2.65,6.04,6.05,5.97,10.32,.35,3.33-1.37,6.29-3.05,9.01,3.44-.47,7.14-1.26,10.41,.37,4.66,2.03,6.69,7.14,8.26,11.62-2.15,1.27-4.33,2.83-6.93,2.88-3.29,.14-6.24-1.57-9.19-2.77-5.29,8.06-11.47,16.34-20.65,20.17-7.76,3.53-17.16,3.32-24.71-.64-1.92-7.83,.33-16.59,5.36-22.85,6.57-8.39,16.79-12.67,26.9-15-1.06-5-.32-10.75,4.01-14.04Z" style="fill:#b9723e;"/><path d="M151.87,892.85c1.32-.38,2.99-1.12,4.06,.18,7.15,6.41,10.3,16.61,8.9,26.02-1.14,8.56-5.93,15.92-10.75,22.87,2.28,2.4,4.89,4.8,5.76,8.13,.67,2.15,.09,4.4-.2,6.58-4.42,.5-9.21,.32-12.92-2.43-3.32-2.28-3.95-6.53-4.99-10.11-2.14,2.42-4.32,5.15-7.58,6.07-4.96,1.61-10.04-.85-14.23-3.38,.76-2.32,1.33-4.89,3.31-6.5,2.34-2.36,5.75-2.9,8.56-4.44,.27-2.57,.15-5.14,.15-7.69,3.44-1.42,8.37-1.51,10.19-5.22-.57-5.46-3.62-10.27-7.36-14.13,2.84-7.61,9.59-13.25,17.1-15.95Z" style="fill:#b9723e;"/><path d="M1115.42,896.73c25.09,12.36,51.44,21.94,78.03,30.52-2.49,3.83-1.7,8.66-.57,12.83,3.07,9.83,9.49,18.19,16.36,25.71,6.84,6.82,13.46,13.91,21.02,19.95,5.95,4.84,11.88,9.71,18.05,14.26h-172.75c12.89-34.58,25.98-69.08,39.86-103.27Z" style="fill:#b9723e;"/><path d="M190.17,921.05c5.37,2.12,8.43,7.39,9.29,12.9,6.74,.12,13.63-.48,20.19,1.52,7.17,2.15,14.27,6.22,18.14,12.85,1.8,3.01,3.29,6.27,3.95,9.74,.52,1.57-1,2.7-1.98,3.66-6.61,5.28-15.45,7.52-23.79,6.17-9.1-1.2-16.58-6.9-23.83-12.06-2.27,1.9-4.49,4.12-7.45,4.88-2.4,.69-4.9,.19-7.33-.07-.46-4.99,.42-10.56,4.16-14.18,2.75-2.63,6.77-2.61,10.31-2.9-2.9-2.23-5.93-4.84-6.59-8.64-1.2-5.19,1.7-10.08,4.93-13.87Z" style="fill:#b9723e;"/><path d="M753.77,957.83c20.59-3.29,41.1-7.11,61.74-10.03-7.15,5.51-14.75,10.38-22.11,15.6-17.5,12.22-35.05,24.37-52.54,36.6h-65.49c-.3-9.63-1.68-19.19-2.34-28.79,26.93-4.37,53.82-8.95,80.74-13.38Z" style="fill:#b9723e;"/></g><g><path d="M100,568.53c51.48-14.24,107.36-12.11,157.57,6.12,60.79,21.79,112.58,67.26,142.21,124.61,19.21,36.77,29.21,78.22,29.24,119.69-.02,35.28-7.14,70.57-21.17,102.96-12.44,28.91-30.24,55.54-52.21,78.09h-15c8.79-8.71,17.69-17.39,24.98-27.45,30.25-38.62,48.61-86.51,51.45-135.51,4.32-59.71-14.27-120.78-51.22-167.91-5.36-6.9-11.05-13.55-17.11-19.85-4.38-4.1-8.16-8.85-13.05-12.38-4.33,8.98-8.23,18.17-12.66,27.1-.82,1.86-1.77,3.76-1.86,5.84,.62,1.58,1.65,2.97,2.65,4.34,12.2,15.58,21.79,33.02,30.14,50.91,6.71,15.68,12.32,31.97,14.85,48.9,1.64,11.4,3.06,23.01,1.62,34.52-.2-2.43-.48-4.84-.8-7.23-2.49-32.77-13.81-64.72-31.72-92.22-19.57-30.01-47.27-54.67-79.39-70.55-30.96-15.43-65.97-22.52-100.49-20.54-35.73,1.81-70.89,13.52-100.61,33.42-22.84,15.2-42.51,35.13-57.42,58.16v-87.78c26.3-22.63,57.22-39.9,90.3-50.37,3.22-1.01,6.46-1.96,9.7-2.87Z" style="fill:#00b7bf;"/><path d="M113.11,638.46c35.47-11.06,74.22-11.26,109.84-.67,33.24,9.79,63.57,29.06,86.72,54.84,22.18,24.56,37.75,55.05,44.49,87.46,8.09,38.65,3.92,79.85-12.26,115.91-11.91,26.74-30.13,50.63-52.76,69.2-19.02,15.69-41.17,27.49-64.71,34.8H113.05c-13.32-4.79-26.55-10.02-38.74-17.28-18.94-10.98-35.93-25.29-50-42.05-9.5-11.28-17.66-23.69-24.31-36.85v-169.89c7.8-14.35,16.69-28.18,27.67-40.32,22.73-25.71,52.62-45.06,85.44-55.15Zm-6.28,34.72c-.22,.21-.65,.65-.87,.86-38.09,16.14-68.94,48.3-84.04,86.76-.21,.25-.62,.73-.82,.97-11.24,4.22-17.84,16.63-17.8,28.27-.79,5.33,4.94,7.91,8.77,10.09v.69c-2.06,13.29-1.31,26.88,.2,40.2-4.74,5.1-7.14,11.84-7.12,18.77,3.63,1.77,7.63,2.35,11.62,2.57,1.12,3.6,2.27,7.19,3.5,10.76-1.05,1.08-2.12,2.17-3.18,3.26,1.12,5.75,4.47,11.66,10.17,13.84,.46,.6,1.03,1.11,1.7,1.53,.79,2.08,1.74,4.12,2.3,6.3,.08,3.65-.94,7.23-1.12,10.88-.8,10.41,1.1,21.71,8.1,29.85,5.07,6.13,12.64,9.74,20.44,10.84,1.76,5.63,7.93,7.41,12.98,8.92,6.26,1.35,13.25,1.46,19.02-1.67,.22,.02,.64,.06,.85,.08,30.06,17.43,66.18,23.74,100.49,18.76,3.65-.47,7.22-1.58,10.91-1.65,2.81,.98,5.23,2.77,7.89,4.09,7.65,3.9,16.64,5.86,25.14,3.84,6.54-1.42,12.39-5.24,16.81-10.21,.79-1.01,1.8-2.07,1.75-3.44-.03-4.85-1.9-9.39-3.33-13.94,8.04-4.79,15.51-10.47,22.58-16.59,3.94-3.61,8.11-7.05,11.29-11.39,1.07-.64,2.08-1.37,2.94-2.26,5.99-2.38,8.97-8.56,10.92-14.29,11.15-16.7,20.24-35.18,24.12-55,.26-.42,.79-1.27,1.05-1.7,11.68-8.34,15.47-25.48,9.1-38.21-1.19-2.22-3.95-2.66-6.01-3.74l.05-.97c4.41-5.57,3.43-13.85-1.76-18.56v-.3c1.42-.36,2.87-.71,4.24-1.29,4.11,.24,8.38-1.14,11.09-4.34,3.56-4.41,5.19-10.13,5.21-15.74-6.29-3.34-13.88-3.19-20.24-.13-.46,.1-1.38,.32-1.84,.43-3.76,.78-4.65-4.01-6.86-6.06-1.63-7.84-5.89-14.78-9.43-21.86-2.08-4.41-6.27-8.16-5.92-13.39,.29-8.18-2.55-16.56-8.32-22.46-6.97-7.23-16.84-11.36-26.74-12.33-.72-.52-1.5-.85-2.36-.98-2.95-3.15-6.52-5.67-10.44-7.44-.18-.24-.52-.71-.7-.95-1.54-5.09-5.14-9.77-10.16-11.77-1.86,.77-3.42,2.07-5.03,3.25-5.79-2.56-11.72-4.77-17.53-7.27,.59-3.17,.74-6.4,.24-9.59-5.05-1.28-10.49-1.88-15.54-.28-2.64,.84-4.5,3.14-7.09,4.05-4.38-.26-8.67-1.3-13.05-1.64-12.67-1.39-25.43-.69-38.07,.55-2.76-2.64-4.42-6.22-7.36-8.69-1.86-1.56-3.89-3.79-6.57-3.18-12.13,1.5-23.91,10.5-26.17,22.9Z" style="fill:#00b7bf;"/><path d="M0,928.56c3.88,6.25,8.33,12.13,12.94,17.85,18.34,22.36,41.41,40.8,67.35,53.59h-9.79c-14.29-6.62-28.74-13.49-40.88-23.69-9.44-7.47-17.25-16.69-25.39-25.48-1.41,.7-2.84,1.41-4.23,2.18v-24.45Z" style="fill:#00b7bf;"/></g><g><path d="M57.42,651.39c29.72-19.9,64.88-31.61,100.61-33.42,34.52-1.98,69.53,5.11,100.49,20.54,32.12,15.88,59.82,40.54,79.39,70.55,17.91,27.5,29.23,59.45,31.72,92.22-3.17-6.04-3.38-13-5.58-19.37-8.34-29.24-20.79-57.58-38.97-82.09-3.52-4.95-7.1-9.96-11.86-13.82-1.19,2.2-2.37,4.41-3.55,6.63-23.15-25.78-53.48-45.05-86.72-54.84-35.62-10.59-74.37-10.39-109.84,.67-32.82,10.09-62.71,29.44-85.44,55.15-10.98,12.14-19.87,25.97-27.67,40.32v-24.38c14.91-23.03,34.58-42.96,57.42-58.16Z" style="fill:#84d9d6;"/><path d="M0,903.82c6.65,13.16,14.81,25.57,24.31,36.85-3.71,2.06-7.5,3.98-11.37,5.74-4.61-5.72-9.06-11.6-12.94-17.85v-24.74Z" style="fill:#84d9d6;"/></g><g><path d="M335.69,636.9c4.89,3.53,8.67,8.28,13.05,12.38,6.06,6.3,11.75,12.95,17.11,19.85,36.95,47.13,55.54,108.2,51.22,167.91-2.84,49-21.2,96.89-51.45,135.51-7.29,10.06-16.19,18.74-24.98,27.45h-82.52c24.53-12.37,46.78-29.4,64.51-50.43,22.94-26.86,38.58-59.89,44.77-94.67,2.84-15.28,3.51-30.88,3.03-46.39,1.44-11.51,.02-23.12-1.62-34.52-2.53-16.93-8.14-33.22-14.85-48.9-8.35-17.89-17.94-35.33-30.14-50.91-1-1.37-2.03-2.76-2.65-4.34,.09-2.08,1.04-3.98,1.86-5.84,4.43-8.93,8.33-18.12,12.66-27.1Z" style="fill:#00a7ad;"/><path d="M0,953.01c1.39-.77,2.82-1.48,4.23-2.18,8.14,8.79,15.95,18.01,25.39,25.48,12.14,10.2,26.59,17.07,40.88,23.69H0v-46.99Z" style="fill:#00a7ad;"/></g><path d="M732.76,650.87c11.46-4,25.23-1.27,33.73,7.58,9.64,9.92,13.84,23.75,15.78,37.14,9.37-4.26,20.19-7.12,30.34-4,8.04,2.38,13.97,9.16,17.1,16.72,5.05,12.19,5.75,25.64,5.92,38.67-.06,31.35-5.44,62.44-12.25,92.95-.69,4.01-2.77,7.99-1.86,12.13,2.05,4.9,3.98,9.86,5.83,14.85-37.4,19.39-74.94,38.48-112.35,57.85,41.48-7.67,82.85-15.92,124.27-23.85,10.9,32.73,20.59,65.86,29.84,99.09h-128.25c17.49-12.23,35.04-24.38,52.54-36.6,7.36-5.22,14.96-10.09,22.11-15.6-20.64,2.92-41.15,6.74-61.74,10.03-26.92,4.43-53.81,9.01-80.74,13.38-2.3-27.37-4.39-54.77-5.86-82.2-.05-1.99-.43-3.98-1.79-5.49-12.13-15.73-23.37-32.16-33.24-49.39-11.4-20.3-21.39-41.82-25.45-64.9-1.58-10.23-2.34-21.18,1.63-30.98,3.13-7.69,11.42-11.5,19.09-13.07,6.12-.95,12.36-.58,18.45,.48-4.03-9.02-6.74-18.81-6.57-28.75,.08-7.19,2.05-14.48,6.25-20.37,6.25-8.8,16.74-14.29,27.5-14.71,12.77-.6,25.16,4.16,35.93,10.68,5.43-9.4,13.31-17.99,23.79-21.64Zm7.75,29.87c-6.58,2.24-10.52,8.8-12.33,15.18-2.85,10.25-1.67,21.79,3.9,30.93,3.02,4.81,7.95,9.18,13.94,9.17,5.49,.23,10.24-3.58,13.03-8.03,4.86-7.81,5.73-17.54,4.16-26.44-1.34-6.75-4.3-13.54-9.72-18-3.54-2.94-8.52-4.31-12.98-2.81Zm-70.12,12.78c-5.49,2.4-8.31,8.4-9.06,14.07-1.3,10.87,2.54,22.13,9.74,30.31,4.05,4.51,9.6,8.32,15.88,8.35,4.68,.02,9.06-2.78,11.35-6.8,3.53-6.13,3.65-13.65,2.2-20.41-2.03-8.97-6.87-17.61-14.48-22.97-4.43-3.17-10.45-4.78-15.63-2.55Zm127.9,35.94c-5.33,2.58-8.58,8.01-10.51,13.4-2.71,8.05-2.95,17.12,.17,25.09,1.76,4.4,5.11,8.77,10.02,9.67,4.96,.84,9.56-2.31,12.37-6.15,5.37-7.38,7.11-17.01,5.94-25.96-.81-5.42-2.78-11.11-7.17-14.66-2.98-2.49-7.32-3.05-10.82-1.39Zm-164.03,26.98c-4.27,1.58-6.59,6.15-7.02,10.47-.9,8.68,2.55,17.32,7.78,24.12,3.8,4.77,8.85,9.07,15.02,10.18,4.06,.8,8.6-.91,10.78-4.51,2.77-4.47,2.72-10.06,1.74-15.05-1.9-8.73-6.91-16.85-14.14-22.14-4.02-2.83-9.3-4.87-14.16-3.07Zm88.25,10.24c-6.54,1.24-12.28,5.49-15.71,11.14-5.28,8.5-6.48,18.65-7.99,28.34-.4,3.48-2.34,6.51-4.58,9.11-5.07,5.96-10.87,11.6-13.9,18.96-2.39,5.82-2.99,12.78-.11,18.55,2.35,4.87,7.29,8.2,12.59,9.01,7.91,1.36,15.75-1.64,22.5-5.54,10.57-5.95,22.41-10.37,34.71-10.02,10.03-.32,20.13,3.37,30.04,.55,6.62-1.66,12.87-6.63,14.24-13.58,1.63-7.69-2.3-15.47-7.92-20.55-6.1-5.74-14.17-8.5-21.17-12.86-4.04-2.44-5.84-7-8.19-10.85-4.43-7.53-9.58-15.16-17.3-19.63-5.13-3.08-11.41-3.86-17.21-2.63Z" style="fill:#ff8903;"/><g><path d="M106.83,673.18c2.26-12.4,14.04-21.4,26.17-22.9,2.68-.61,4.71,1.62,6.57,3.18,2.94,2.47,4.6,6.05,7.36,8.69,12.64-1.24,25.4-1.94,38.07-.55,4.38,.34,8.67,1.38,13.05,1.64,2.59-.91,4.45-3.21,7.09-4.05,5.05-1.6,10.49-1,15.54,.28,.5,3.19,.35,6.42-.24,9.59,5.81,2.5,11.74,4.71,17.53,7.27,1.61-1.18,3.17-2.48,5.03-3.25,5.02,2,8.62,6.68,10.16,11.77-4.68-2.64-9.17-5.78-14.23-7.65-3.27,.78-3.92,4.68-5.11,7.31-3.34,4.79-5.38,10.96-2.68,16.56-2.62,1.33-5.23,2.65-7.85,3.98-2.19-7.43-5.6-14.41-9.42-21.13,3.74-4.6,6.05-10.77,4.69-16.71-3.33-1.94-7.53-1.33-11.24-1.71-2.72-.54-5.4-1.54-8.2-1.49-3.08,1.97-2.65,6.29-3.34,9.45l-.15,.83c-2.77-4.03-5.57-8.85-10.65-10.15-6.67-1.84-13.28,1.3-18.72,4.93,.52,2.07,1.04,4.13,1.58,6.2-.36,.33-1.08,.97-1.45,1.29,1.25,3.24,2.38,6.67,4.79,9.27,2.74,3.2,6.55,5.14,10.27,6.96-1.38,6.07-2.38,12.25-2.38,18.49-9.47-4.59-19.86-6.84-30.33-7.29-.71-2.49-1.3-5.12-.12-7.57,3.1-7.95,3.22-16.87,.36-24.91-.47-3.56-.6-9.42-5.8-8.69-2.03-1.64-3.87-3.59-6.23-4.77-9.36,.07-18.35,5.44-23.53,13.16-2.21,.61-4.42,1.22-6.59,1.97Z" style="fill:#00959b;"/><path d="M21.92,760.8c15.1-38.46,45.95-70.62,84.04-86.76-2.22,8.7-2.02,17.78-1.05,26.64-4.26,.5-8.96,.85-12.28,3.92-3.32,2.69-4.33,7.01-5.62,10.88-.82-.89-1.66-1.74-2.49-2.6-2.03-2.48-4.15-5.26-7.45-6.01-6.77-1.92-13.61,1.3-19.04,5.16,1.18,5.47,4.11,10.43,8.89,13.48,2.09,1.91,4.16,3.86,6.51,5.44-.65,3.31-1.37,6.6-2.17,9.87-.87-.69-1.76-1.36-2.65-2-1.65-1.22-3.28-2.45-4.89-3.71-2.8,1.62-5.59,3.43-7.51,6.1-3.1,3.85-4.17,8.78-5.37,13.46-9.85,.56-19.95,1.71-28.92,6.13Z" style="fill:#00959b;"/><path d="M266.66,694.22c9.9,.97,19.77,5.1,26.74,12.33,5.77,5.9,8.61,14.28,8.32,22.46-.35,5.23,3.84,8.98,5.92,13.39,3.54,7.08,7.8,14.02,9.43,21.86-6.98-7.17-14.98-14.06-24.96-16.44-6.19-1.7-12.6-.46-18.71,.92-.97-.93-1.94-1.87-2.9-2.79,5.12,.37,10.41-.13,15.13-2.29,3.71-1.52,6.77-4.15,10.08-6.34,1.87-1.33,4.13-2.32,5.38-4.33-.67-3.88-3.84-6.5-6.18-9.41-1.72-4.16-3.58-8.39-6.76-11.67-3.24-3.63-7.51-6.06-11.7-8.4-2.95-3.41-6.15-6.62-9.79-9.29Z" style="fill:#00959b;"/><path d="M231.66,727.79c2.44-1.19,4.92-2.29,7.45-3.27-1.58,2.19-3.1,4.43-4.41,6.8-1.01-1.18-2.03-2.36-3.04-3.53Z" style="fill:#00959b;"/><path d="M109.17,731.34c2.38-.75,4.66-1.81,6.72-3.22-.93,2.99-1.3,6.11-1.57,9.23,4.2,2.06,9.07,2.9,13.64,1.62,3.75-1.13,7.67-.58,11.51-.39,3.41,3.65,7.03,7.1,11,10.15-4.54-.82-9.32-1.7-13.79-.08-3.55,1.01-6.33,3.53-9.44,5.37-2.65,1.18-5.61,1.39-8.43,1.92-1.23-8.83-4.94-17.1-9.64-24.6Z" style="fill:#00959b;"/><path d="M194.59,742.15c.63,.41,1.25,.83,1.89,1.27-4.29,9.49-4.14,20.16-3.21,30.33-2.43-1.33-4.75-2.86-7-4.46-2.49,2-5.02,3.96-7.26,6.24-1.74-2.58-3.31-5.27-4.91-7.93,3.78-3.32,6.54-7.6,8.2-12.34,4.24-1.8,8.54-3.95,11.59-7.5,.56-1.82,.52-3.75,.7-5.61Z" style="fill:#00959b;"/><path d="M3.3,790.04c-.04-11.64,6.56-24.05,17.8-28.27-.89,2.89-1.49,5.86-2.05,8.84-5.94,6.75-8.87,16.13-7.15,25.04,.1,1.48,.16,2.98,.17,4.48-3.83-2.18-9.56-4.76-8.77-10.09Z" style="fill:#00959b;"/><path d="M232.82,767.81c3.33,7.38,6.78,14.84,12.48,20.75-4.31,3.5-7.69,8-9.76,13.16-2.02-1.64-3.45-3.82-3.96-6.38-1.26-5.03-4.57-9.1-7.13-13.49,3.31-4.35,6.05-9.1,8.37-14.04Z" style="fill:#00959b;"/><path d="M141.52,771.08c1.19,.6,2.4,1.18,3.6,1.79-.45,2.11-.9,4.23-1.33,6.35-.53-2.78-1.26-5.51-2.27-8.14Z" style="fill:#00959b;"/><path d="M91.3,782.96c1.87,.86,3.76,1.7,5.65,2.53-.73,7.64-.22,15.3,.72,22.89-3.87,1.67-7.65,3.54-11.29,5.68,1.75-8.37,2.13-17.23-.8-25.38,1.93-.58,3.86-1.15,5.78-1.72-.02-1.35-.04-2.68-.06-4Z" style="fill:#00959b;"/><path d="M276.27,796.03c.93-.77,1.87-1.55,2.8-2.31,7.21,2.84,14.82,4.39,22.5,5.24,.26,4.21,1.22,8.36,3.06,12.18-13.99,3.47-22.45,16.31-28.18,28.6,.75-7.06,4.04-13.59,4.3-20.73,.97-7.95-.79-15.94-4.48-22.98Z" style="fill:#00959b;"/><path d="M12.08,800.82c4.29,1.67,8.76,2.87,13.38,2.96,4.58,.73,9.26,1.15,13.87,.37,.42,2.88,.81,5.77,1.08,8.68-1.19-.8-2.38-1.59-3.58-2.35-.85,.68-1.68,1.38-2.51,2.1-1.54-.72-3.09-1.44-4.64-2.15-5.02,4.09-9.99,9.7-9.92,16.57-.08,4.43,2.81,8,5.41,11.29-.98,.15-1.95,.33-2.93,.53-3.1,.58-6.47,.56-9.23,2.3-.74,2.79,.61,5.64,.97,8.43-.32,2.78-.67,5.57-.98,8.37,5.18,2.46,11.11,2.73,16.5,.77,2.72,3.14,5.55,6.2,8.57,9.07-4.77,.42-9.03,2.73-13.37,4.56-1.37,.49-2.75,.93-4.13,1.4,2.01,5.58,4.51,10.98,6.69,16.5-5.7-2.18-9.05-8.09-10.17-13.84,1.06-1.09,2.13-2.18,3.18-3.26-1.23-3.57-2.38-7.16-3.5-10.76-3.99-.22-7.99-.8-11.62-2.57-.02-6.93,2.38-13.67,7.12-18.77-1.51-13.32-2.26-26.91-.19-40.2Z" style="fill:#00959b;"/><path d="M327.18,811.22c2.06,1.08,4.82,1.52,6.01,3.74,6.37,12.73,2.58,29.87-9.1,38.21,.67-3.83,.87-7.72,1.53-11.55,3.85-7.88,3.77-16.94,1.18-25.18,.09-1.76,.26-3.49,.38-5.22Z" style="fill:#00959b;"/><path d="M110.23,825.8c1.27,3.43,2.43,7.19,5.39,9.59,3.05,2.7,7.25,3.16,11.08,3.95,.03,6.76,1.02,13.45,2.16,20.09-.57,4.02-4.88,5.69-7.3,8.48-2.92-9.54-6.95-19.15-14.21-26.23-4.77-4.66-11.04-7.67-17.67-8.43-2.31-2.07-4.77-3.97-7.26-5.81,5,.31,9.05,4.6,14.32,3.28,5.02,.42,10.18-.91,13.49-4.92Z" style="fill:#00959b;"/><path d="M200.1,831.29c5.02,3.45,10.76,5.65,16.72,6.82,7.29,2.13,14.82-.13,21.39-3.38,.91,2.12,1.86,4.23,2.83,6.34-5.2,3.5-9.6,8.45-11.03,14.71-8.16-6.31-18.06-9.72-28.06-11.8,.12-4.31-.48-8.6-1.85-12.69Z" style="fill:#00959b;"/><path d="M302.03,867.04c7.21-3.68,14.66-7.05,21.01-12.17-3.88,19.82-12.97,38.3-24.12,55-1.95,5.73-4.93,11.91-10.92,14.29,3.25-4.04,6.36-8.18,9.4-12.37-1.55-1.32-3.11-2.61-4.69-3.87-4.76-4.57-10.92-7.83-17.68-7.41-3.4-8.88-6.36-19.12-14.63-24.74-3.62-4.01-7.7-7.7-12.66-9.97,4.05-1.7,7.58-4.36,10.22-7.88,2.11,2.97,5.3,4.91,8.66,6.16,3.12,1.29,6.42,2,9.72,2.65-.64,3.51-.68,7.43,1.46,10.49,2.81,4.65,8.05,6.72,12.48,9.47,2.38,1.12,5.63,4.38,7.75,1.29,5.08-5.71,5.02-13.82,4-20.94Z" style="fill:#00959b;"/><path d="M143.25,875.22c1.33,3.4,2.66,6.8,3.97,10.22-8.99,3.62-15.33,11.84-17.88,21.04-3.55-.08-7.07,.55-10.41,1.73,3.08-3.67,5.24-8.16,4.95-13.05,6.55-.36,12.43-4.32,15.34-10.16,1.98-2.98,4-6.06,4.03-9.78Z" style="fill:#00959b;"/><path d="M73.46,878.57c2.5,.44,4.88,1.41,6.72,3.22,4.56,4.2,9.99,7.25,15.27,10.44-1.03,3.9-1.59,7.9-1.83,11.93-4.98,1.7-9.79,3.85-14.34,6.5-1.62-9.36-5.98-17.99-11.28-25.77,1.94-2.01,3.82-4.08,5.46-6.32Z" style="fill:#00959b;"/><path d="M28.96,891.75c1.07,.92,2.74,1.54,2.82,3.19,.62,4.15,2.63,7.83,5.04,11.21-.39,9.05,1.22,18.7,6.99,25.97,5,6.5,12.82,10.38,20.88,11.35,.23,1.12,.45,2.24,.68,3.39,5.71,3.88,12.5,6.12,19.43,5.98,1.94,1.37,3.86,2.77,5.88,4.03-5.77,3.13-12.76,3.02-19.02,1.67-5.05-1.51-11.22-3.29-12.98-8.92-7.8-1.1-15.37-4.71-20.44-10.84-7-8.14-8.9-19.44-8.1-29.85,.18-3.65,1.2-7.23,1.12-10.88-.56-2.18-1.51-4.22-2.3-6.3Z" style="fill:#00959b;"/><path d="M216.33,898.55c2.69-.09,5.39-.12,8.09-.11,1.96,3.37,4.6,6.26,7.22,9.13,3.52,6.4,10.28,9.88,16.15,13.77-.43,1.78-.83,3.54-1.17,5.36-.95-1.33-1.88-2.67-2.8-4-4.2-7.18-13.38-8.6-20.98-7.8-1.75-5.61-3.73-11.17-6.51-16.35Z" style="fill:#00959b;"/><path d="M171.22,912.58l1.4-.12c1.96,4.17,4.45,8.08,7.67,11.4-.96,3.12-.98,6.43-.6,9.66,.24,3.09,.97,6.12,2.08,9.02-3.39,.77-6.73,2.48-8.61,5.51-3.27,4.77-2.89,10.79-2.91,16.3-.01,2.41,.01,4.83,.02,7.25,3.51,.82,7.18,1.53,10.74,.61,4.55-.84,8.38-3.57,12.13-6.1,3.25,2.39,6.09,5.47,9.85,7.07,2.84,.2,5.59-.85,8.32-1.51,10.61,4.91,24.03,4.7,33.33-2.95,2.55-2.37,6.63-4.74,6.08-8.76-.56-8.23-4.69-16.18-11.15-21.32,2.15-2.98,4.5-5.8,7.06-8.43,.38,4.03,2.17,7.69,4.4,11.01,1.18,1.9,2.31,3.83,3.42,5.78,6.21-1.03,12.71-3.85,16.06-9.45,2.74-4.48,1.33-9.87,.44-14.66,4.28,2.47,9.12,3.99,14.11,3.53-3.18,4.34-7.35,7.78-11.29,11.39-7.07,6.12-14.54,11.8-22.58,16.59,1.43,4.55,3.3,9.09,3.33,13.94,.05,1.37-.96,2.43-1.75,3.44-4.42,4.97-10.27,8.79-16.81,10.21-8.5,2.02-17.49,.06-25.14-3.84-2.66-1.32-5.08-3.11-7.89-4.09-3.69,.07-7.26,1.18-10.91,1.65-34.31,4.98-70.43-1.33-100.49-18.76,8.42-4.4,16.81-10.64,20.59-19.64,1.55-2.22,3.19-4.37,4.69-6.62,2.97,.82,5.94,1.66,8.91,2.53,.1,.61,.31,1.83,.42,2.45-6.55,2.26-11.3,7.81-13.5,14.27-.99,2.24-1.88,4.52-2.75,6.82,5.19,3.79,11.38,7.55,18.1,6.31,4.86-.72,8-4.84,10.99-8.33,1.03,4.03,1.5,8.61,4.64,11.66,4.63,4.74,11.95,5.29,18.13,4.15,3.41-.5,1.93-4.92,2.61-7.35,1.15-6.71-.25-13.84-4.92-18.98,4.65-7.66,10.08-15.46,10.6-24.71,.44-2.3,.86-4.62,1.18-6.93Z" style="fill:#00959b;"/></g><path d="M113.42,671.21c5.18-7.72,14.17-13.09,23.53-13.16,2.36,1.18,4.2,3.13,6.23,4.77,2.11,2.78,4.03,5.68,5.8,8.69,2.86,8.04,2.74,16.96-.36,24.91-1.18,2.45-.59,5.08,.12,7.57,.41,1.72,.78,3.47,1.14,5.22,10.11,.58,20.34,2.39,29.29,7.35-.05-1.77-.1-3.52-.1-5.28,0-6.24,1-12.42,2.38-18.49-3.72-1.82-7.53-3.76-10.27-6.96-2.41-2.6-3.54-6.03-4.79-9.27,.37-.32,1.09-.96,1.45-1.29,5-3.46,11.56-5.89,17.57-3.76,4.41,1.59,6.89,5.82,8.95,9.75,.4-2.33,.84-4.65,1.27-6.97l.15-.83c2.45-4.29,6.71-7.1,11.54-7.96,3.71,.38,7.91-.23,11.24,1.71,1.36,5.94-.95,12.11-4.69,16.71-1.14,1.28-2.33,2.5-3.52,3.72,4.67,7.02,8.54,14.61,10.68,22.8,4.38-3.68,10.21-4.09,15.62-3.02-1.98-2-3.9-4.05-5.51-6.35-2.7-5.6-.66-11.77,2.68-16.56,1.92-1.83,3.94-3.56,5.94-5.29,2.86,2.03,5.88,4.1,7.73,7.18,2.35,3.59,3.17,7.86,3.83,12.03,8.58,.43,17.11,1.97,25.13,5.08,4.19,2.34,8.46,4.77,11.7,8.4,3.18,3.28,5.04,7.51,6.76,11.67,.96,4.51,1.07,9.14,.8,13.74-3.31,2.19-6.37,4.82-10.08,6.34-4.72,2.16-10.01,2.66-15.13,2.29-6.11-.71-11.51-3.74-16.93-6.4-.03,2.62,2.51,3.55,4.36,4.71,3.99,2.18,7.63,4.93,11.19,7.74,6.53-2.03,13.67-2.53,20.2-.21,11.09,3.74,19.41,12.55,26.5,21.51,2.64-1.15,5.31-2.25,8.11-2.98,.46-.11,1.38-.33,1.84-.43,4.26-.43,8.47,.6,12.39,2.23-.36,6.75-2.47,14.08-8.45,17.98-1.37,.58-2.82,.93-4.25,1.29-3.1,.25-6.17-.28-9.16-.98,2.92,2.91,5.89,6.25,6.44,10.52,.7,3.8-1.18,7.31-2.79,10.61,2.66,1.03,5.69,1.99,6.85,4.9,2.59,8.24,2.67,17.3-1.18,25.18-4.17,7.29-10.62,12.99-17.86,17.13-3.67,2.28-7.8,3.66-11.56,5.77-.12,4.4,1.09,8.91-.3,13.23-.85,3.51-3.06,6.46-5.62,8.94-4.43-2.75-9.67-4.82-12.48-9.47-2.14-3.06-2.1-6.98-1.46-10.49,.8-2.07,1.76-4.06,2.72-6.04-3.83,2.08-8.02,3.57-12.44,3.39-3.36-1.25-6.55-3.19-8.66-6.16-1.02-1.31-1.97-2.66-3.05-3.89-1.8,2.47-3.12,5.48-5.83,7.12-3.74,2.35-8.37,2-12.6,2.27,3.82,.35,7.73,.76,11.26,2.38,4.96,2.27,9.04,5.96,12.66,9.97,5.19,7.61,8.68,16.17,11.16,25.01,.86-.07,2.6-.2,3.47-.27,6.76-.42,12.92,2.84,17.68,7.41-2.96,5.66-7.11,11.75-13.77,13.16-4.86,1.09-9.41-1.49-13.29-4.08,1.77,4.49,3.15,9.84,.69,14.37-2.97,5.75-9.49,8.1-15.31,9.85-2.23-3.32-4.02-6.98-4.4-11.01-.05-1.18-.05-2.36-.01-3.51,.34-1.82,.74-3.58,1.17-5.36,.14-.61,.41-1.84,.55-2.45-5.8-3.43-11.43-7.12-16.7-11.32-2.62-2.87-5.26-5.76-7.22-9.13-1.58-4.65-6.9-3.76-10.78-4.53,.91,1.53,1.83,3.06,2.69,4.64,2.78,5.18,4.76,10.74,6.51,16.35,7.6-.8,16.78,.62,20.98,7.8-2.56,4.79-5.93,9.24-10.77,11.91,2.22,1.25,4.45,2.52,6.52,4.03,6.46,5.14,10.59,13.09,11.15,21.32,.55,4.02-3.53,6.39-6.08,8.76-9.3,7.65-22.72,7.86-33.33,2.95-7.06-3.11-13.21-7.85-19.15-12.68-5.9,5.26-14.2,7.95-21.91,5.36,.02-5.51-.36-11.53,2.91-16.3,1.88-3.03,5.22-4.74,8.61-5.51,2.08-.18,4.17-.26,6.26-.3-3.34-2.32-6.3-5.18-8.34-8.72-.38-3.23-.36-6.54,.6-9.66,.3-.75,.91-2.25,1.21-3-4.48-4.61-8.02-10.07-10.15-16.15,.03,2.62,.07,5.24-.13,7.87-.32,2.31-.74,4.63-1.18,6.93-3.04,8.04-7.41,15.48-12.64,22.28,.69,.79,1.37,1.61,2.04,2.43,4.67,5.14,6.07,12.27,4.92,18.98-6.21,.77-13.39,1.35-18.5-3-3.91-3.15-4.6-8.44-4.94-13.11-2.5,4.13-5.85,8.45-10.96,9.22-6.49,1.11-12.36-2.67-17.32-6.37,2.2-6.46,6.95-12.01,13.5-14.27,.95-.4,1.91-.77,2.87-1.11-.27-2.28-.54-4.53-.81-6.79-2.72-.72-5.43-1.47-8.11-2.33-1.08,1.76-2.15,3.52-3.28,5.25-1.5,2.25-3.14,4.4-4.69,6.62-7.12,7.89-16.24,15.08-27.32,15.53-6.93,.14-13.72-2.1-19.43-5.98-.23-1.15-.45-2.27-.68-3.39-8.06-.97-15.88-4.85-20.88-11.35-5.77-7.27-7.38-16.92-6.99-25.97,.23-5.47,1.26-10.85,2.38-16.19-7.24-2.96-14.78-9.09-14.5-17.64,4.34-1.83,8.6-4.14,13.37-4.56,6.66-.19,11.43,5.02,14.03,10.6,.35-2.15,.72-4.3,1.09-6.43-6.87-4.33-12.54-10.17-18-16.11-1.87,1-3.75,2-5.69,2.87-5.39,1.96-11.32,1.69-16.5-.77,.31-2.8,.66-5.59,.98-8.37,1.52-4.38,4.24-8.32,8.26-10.73,.98-.2,1.95-.38,2.93-.53,2.89-.39,5.81-.06,8.68,.31-3.04-2.89-6.25-6.21-6.78-10.58-.78-6.05,2.97-11.56,7.25-15.44,.83-.72,1.66-1.42,2.51-2.1,1.2,.76,2.39,1.55,3.58,2.35,5.26,4.14,7.39,10.78,8.18,17.19,1.45-.48,2.9-.95,4.34-1.42-3.85-8.24-6.82-16.98-7.55-26.1-2.01,.57-4.01,1.19-6.05,1.65-4.61,.78-9.29,.36-13.87-.37-4.96-1.89-9.54-4.68-13.56-8.13-1.72-8.91,1.21-18.29,7.15-25.04,9.74-10.05,24.35-12.56,37.74-12.99,.84-4.08,1.68-8.32,4.1-11.8,1.95-2.95,4.9-4.98,7.72-7,.89,.64,1.78,1.31,2.65,2,1.81,1.78,3.36,3.79,4.95,5.77,.56-4.38,1.29-8.74,2.24-13.06-1.69-.84-3.38-1.65-5.02-2.58-2.35-1.58-4.42-3.53-6.51-5.44-1.49-2.76-2.57-5.71-3.54-8.68,6.05-4.31,13.93-7.14,21.14-3.95,.83,.86,1.67,1.71,2.49,2.6,1.77,1.96,3.1,4.26,4.35,6.58,.5-4.3,1.26-9,4.69-12.01,3.19-3.16,7.87-3.62,12.12-3.83-1.4-11.8-1.3-24.64,5.25-35.01Zm2.27,9.42c-4.45,7.69-5.33,16.97-4.23,25.65,1.38,.5,2.77,1.01,4.15,1.52,1.28,6.25-1.26,12.25-4.69,17.32,1.48-.22,3.01-.25,4.43-.74,2.49-1.19,3.74-3.88,5.89-5.48,4.17-1.17,8.57-1.08,12.87-1.11-2.83-3.93-6.7-8.18-5.72-13.43,1.43-5.7,4.8-11.25,10.14-14.04,1.86,1.29,3.75,2.56,5.67,3.79,1.57-5.98,.09-12.29-2.45-17.78-1.78-3.61-4.04-7.4-7.74-9.3-7.6,1.68-14.56,6.73-18.32,13.6Zm82.63-4.31c-2.27,1.87-1.76,5.6-3.83,7.43-2.12-2.27-3.69-5.42-6.88-6.34-4.98-1.46-10.21,.1-14.53,2.67,.83,2.31,1.5,4.79,3.19,6.66,2.14,2.46,5.42,3.31,8.31,4.54-1.71,7.5-2.54,15.38-.99,22.99,2.21,9.31,8.73,17.65,17.44,21.74,3.12-3.03,6.78-5.36,10.45-7.64,2.35-2.65,3.33-6.26,4.06-9.65,1.85-11.01-2.85-21.78-8.57-30.91,2.19-2.48,4.8-4.72,6.18-7.79,1.02-2.16,.73-4.61,.77-6.91-5.29-1.05-11.67-1.11-15.6,3.21Zm43.08,11.04c-4.22,3.05-7.3,8.34-6.38,13.68,.36,3.18,2.86,5.44,4.82,7.74-3.66,.25-7.79-.22-10.86,2.2-3.92,3.06-5.4,8.08-5.93,12.82,2.24,.73,4.54,1.57,6.95,1.34,3.23-.15,5.88-2.19,8.59-3.73,.84,.57,1.69,1.14,2.54,1.72,3.22-1.38,6.51-2.61,9.89-3.54,4.1,4.24,4.13,10.17,4.65,15.65,8.97,4.65,20.2,4.54,28.94-.64,1.17-.83,2.76-1.87,2.58-3.52-.32-9.25-5.61-17.98-13.38-22.92-7.31-4.78-16.13-5.92-24.58-7.16-.35-3.77-.68-7.86-3.38-10.78-1.23-1.19-2.48-3.27-4.45-2.86Zm-107.96,22.64c-.07,3.77,2.46,6.81,4.49,9.75-3.46,.13-7.41-.39-10.27,2.01-4.03,3.01-5.76,8.19-5.64,13.09,5.18,2.31,11.14,.92,15.18-2.91,5.22,6.14,11.36,11.83,18.9,14.96,9.6,4.13,21.25,2.9,29.75-3.22-.03-8.62-3.87-17.4-10.78-22.69-7.81-6.35-18.01-7.95-27.67-9.21-.3-3.19-.23-6.6-1.9-9.45-1.18-2.22-3.54-3.33-5.57-4.61-3.46,3.18-6.35,7.43-6.49,12.28Zm-36.7,5.79c-2.92,2.13-3.81,5.81-4.93,9.05-2.2-2.66-4.35-5.85-7.9-6.74-4.77-1.27-9.8,.21-13.75,3,.85,2.28,1.4,4.8,3.14,6.6,2.11,2.2,5.21,2.87,7.78,4.33-.98,8.81-2.52,18.03,.43,26.67,2.91,8.24,9.35,15.22,17.6,18.27,1.4,.64,3.03,.3,4.11-.76,8.2-7.38,11.74-19.55,8.56-30.15-1.45-6.45-4.92-12.12-7.92-17.93,4.61-3.19,7.99-8.35,7.11-14.16-4.72-1.3-10.17-1.23-14.23,1.82Zm134.92,12c-1.85,.36-3.7,.71-5.55,1.06,4.82,4.08,7.13,9.96,10.27,15.22-1.29-4.13-2.37-8.4-1.68-12.75,1.31-2.37,2.83-4.61,4.41-6.8-2.53,.98-5.01,2.08-7.45,3.27Zm6.82,7.55c-1.57,3.64-.44,7.65,.31,11.36-.88-.52-1.76-1.03-2.64-1.53,.46,5.99-.27,11.93-1.2,17.83,1.81,7.84,6.96,14.86,13.13,19.93,2.64,2.67,6.69,.42,9.63,2.39,3.54,2.08,7.23,4.27,11.54,3.42-2.01-3.55-5.39-6.11-7.19-9.79-3.14-6.05-4.1-13.18-2.91-19.86,1.06-2.43,3.78-3.61,5.72-5.29-4.24-4.16-9.29-7.28-14.2-10.56,.85-2.72,1.99-5.43,2.07-8.31,.06-2.86-1.55-5.35-2.83-7.79-4.51,1.48-8.88,4.09-11.43,8.2Zm-129.31-4c4.7,7.5,8.41,15.77,9.64,24.6l.2,3.88c3.52-1.34,7.19-2.23,10.94-2.57,3.33-4.18,8.92-6.02,14.08-6.44,4.42-.4,8.22,2.21,11.1,5.27,.93,1.66,1.86,3.31,2.78,4.98,.43-2.28,.92-4.54,1.55-6.76-2.65-1.64-5.34-3.2-8.01-4.79-.09-.17-.28-.51-.37-.68l-.61-.1c-3.97-3.05-7.59-6.5-11-10.15-3.84-.19-7.76-.74-11.51,.39-4.57,1.28-9.44,.44-13.64-1.62,.27-3.12,.64-6.24,1.57-9.23-2.06,1.41-4.34,2.47-6.72,3.22Zm90.14,20.92c-3.8,8.41-3.17,17.79-2.22,26.72-5.6,1.07-11.66,4.52-12.2,10.8,3.73,2.21,7.97,4.21,12.43,3.67,4.17-.63,7.13-3.93,9.41-7.21,.51,3.12,.96,6.46,3.02,9.02,2.58,3.46,7.19,4.38,11.26,4.59,1.47-.07,3.81,.19,3.94-1.85,1.1-5.2-1.99-10.01-5.97-13.04,5.29-7.41,10.05-15.65,10.95-24.88,.98-9.39-3.03-18.95-10.18-25.07-8.99,2.16-17.13,8.47-20.44,17.25Zm-4.72-10.11c-.18,1.86-.14,3.79-.7,5.61-3.05,3.55-7.35,5.7-11.59,7.5-1.66,4.74-4.42,9.02-8.2,12.34,1.6,2.66,3.17,5.35,4.91,7.93-.03,.45-.11,1.36-.15,1.81,2.39-1.94,4.59-4.08,6.92-6.09,3.04,1.96,5.7,4.42,8.21,7.01-.12-1.45-.25-2.89-.38-4.32l-.34-.19c-.93-10.17-1.08-20.84,3.21-30.33-.64-.44-1.26-.86-1.89-1.27Zm-129.27,5.19c-4.78,2.22-5.71,7.9-6.48,12.56-7.9,1-16.17,1.63-23.19,5.76-8.6,4.57-14.7,13.66-15.58,23.36-.55,2.92,2.97,3.88,4.92,5.12,6.18,3.43,13.51,3.56,20.32,2.37,1.57-6.88,3.84-14.08,9.47-18.75,3.34-2.62,6.77-5.97,11.13-6.53,7.59,1.6,13.07,7.48,18.08,12.96,.29-5.27-1.66-10.95-6.12-14.04-2.83-1.95-6.45-1.55-9.69-1.48,2.19-2.87,4.87-5.83,4.96-9.64,.37-4.06-1.71-7.85-4.4-10.71-.86-.97-2.15-2.02-3.42-.98Zm97.69,8.05c-2.48,2.6-3.62,6.04-4.46,9.46-1.84-2.87-3.69-6.18-7.17-7.27-4.94-1.84-10.16,.13-14.5,2.55,.57,5.87,5.82,9.63,11.08,11.18-1.2,8.8-2.72,17.97,.33,26.6,1.38,3.48,2.53,8.08,6.63,9.2,3.7,1.22,6.81,3.66,9.23,6.69,1.2,1.06,2.06,2.9,3.77,3.16,6.77-4.49,10.92-12.59,11.49-20.6-.78-3.1-.98-6.24-.63-9.43-1.09-7.05-4.83-13.33-8.37-19.41,3.73-2.42,6.51-6.02,7.45-10.41-4.98-.21-10.02-.31-14.85-1.72Zm104.26,7.87c-.66,8.53,3.32,17.18,9.64,22.85,7.42,6.48,17.33,8.79,26.84,10.14,.23,2.61,.24,5.3,1,7.85,.94,3,3.59,4.92,5.92,6.83,3.55-3.1,6.93-6.98,7.2-11.91,.6-3.78-2.03-6.83-3.82-9.84,3.49-.07,7.33,.3,10.36-1.79,4.24-2.6,5.41-7.81,6.54-12.29-2.19-.99-4.42-2.26-6.91-1.97-3.3,.15-6.15,2.02-8.93,3.64-6.05-8.1-14.11-15.26-24.02-18.02-8.02-1.92-17.29-.7-23.82,4.51Zm-190.59-2.13c-1.65,2.15-3.49,4.14-5.49,5.98,2.29-.27,4.59-.46,6.89-.6-.47-1.8-.94-3.59-1.4-5.38Zm43.97,7.46c-4.24,1.46-5.08,6.26-7.61,9.42-2.1,3.17-5.67,5.16-7.4,8.59-2.68,7.6-1.76,15.83-1.19,23.71-5.48,1.18-10.69,4.39-12.37,10.03,3.77,3.01,8.68,5.41,13.61,4.26,3.67-.82,6.02-3.93,8.51-6.47,.76,3.13,.99,6.74,3.5,9.09,3.1,3.25,7.8,3.85,12.07,3.76,.83-2.59,2.16-5.14,2.08-7.92-1.15-2.69-3.31-4.77-5.09-7.04,4.93-7.61,10.2-15.68,10.55-25.04,.83-8.67-2.64-17.45-8.71-23.6-2.36-2.17-5.52,.39-7.95,1.21Zm112.17-.78c-2.32,4.94-5.06,9.69-8.37,14.04-.75,.92-1.49,1.87-2.24,2.82,3.99,4.15,6.85,9.34,7.59,15.1,1.68,1.51,3.37,3.01,5.07,4.52,.22-.87,.44-1.73,.67-2.57,2.07-5.16,5.45-9.66,9.76-13.16-5.7-5.91-9.15-13.37-12.48-20.75Zm-91.3,3.27c1.01,2.63,1.74,5.36,2.27,8.14,.43-2.12,.88-4.24,1.33-6.35-1.2-.61-2.41-1.19-3.6-1.79Zm-89.93,27.63c-2.08,9.44-.03,19.24,3.75,27.98,1.5,2.36-1.49,3.46-2.9,4.77-3.39,2.24-6.03,6.89-4.74,10.86,4.66,1.89,10.45,2.26,14.71-.8,2.97-1.78,3.9-5.31,5.1-8.32,1.22,2.6,2.69,5.07,4.43,7.37,1.36-1.88,2.56-3.88,4.14-5.59,2.97-1.16,6.21-1.46,9.2-2.58-1.98-1.42-4.06-2.69-6.18-3.86,1.64-6.78,4.38-13.41,4.02-20.52,.17-10.28-5.01-20.96-14.13-26.08-1.2-.52-2.57-1.7-3.92-.95-6.96,3.41-11.36,10.47-13.48,17.72Zm39.71-15.75c.02,1.32,.04,2.65,.06,4-1.92,.57-3.85,1.14-5.78,1.72,2.93,8.15,2.55,17.01,.8,25.38l-.16,.09c-1.01,4.53-2.45,8.97-4.32,13.23l.52,.06c2.49,1.84,4.95,3.74,7.26,5.81,6.63,.76,12.9,3.77,17.67,8.43,7.26,7.08,11.29,16.69,14.21,26.23,2.42-2.79,6.73-4.46,7.3-8.48l2.16-2.64c-1.4-6.11-2.14-12.37-2.06-18.64-4.15-.56-8.66-1.31-11.63-4.56-3.31-3.33-3.94-8.24-3.87-12.71-1.07,1.64-2.15,3.27-3.23,4.92-3.31,4.01-8.47,5.34-13.49,4.92-4.11-1.71-8.19-3.58-11.55-6.56,1.94-7.77,8.63-13.25,16.13-15.35-.95-7.34-1.74-14.79-.66-22.17-1.24-.4-2.48-.78-3.71-1.15-1.89-.83-3.78-1.67-5.65-2.53Zm38.45,33.01c1.31,1.58,2.6,3.17,3.88,4.79,3.05-4.76,7.25-8.73,12.34-11.23-1.9-5.48-3.29-11.15-3.35-16.98-2.75,8.55-7.39,16.35-12.87,23.42Zm124.52-22.56c-5.94,2.22-10.01,7.68-12.66,13.24-4.14,8.66-3.12,18.82,0,27.63,.83,2.52,2.18,4.93,2.37,7.62-2.6,2.37-6.47,3.71-7.58,7.39-.51,1.84-2.01,4.69,.24,5.99,4.39,2.12,9.87,1.83,14.01-.73,2.68-1.94,3.62-5.3,4.89-8.18,.96,1.68,1.89,3.39,2.99,5,2.78,4.56,9,5.16,13.76,4.06,1.67-.43,4.28-1.11,3.96-3.36-.15-5.24-4.84-8.53-9.1-10.6,3.28-9.45,5.66-19.73,3.02-29.64-2.45-7.91-8.09-15.3-15.91-18.42Zm-56.88,5.01c-3.61,1.46-7.54,.57-11.24,.02-.56,5.6-1.82,11.12-4.13,16.28,.93-.49,1.86-.96,2.79-1.42,6.65,7.21,14.29,14.31,24.22,16.41,8.04,1.71,17.44,.45,23.81-4.95,.95-6.55-1.82-13.18-5.92-18.22-6.12,.75-13.26,.04-17.63-4.8-2.1-2.26-1.98-6.59-5.21-7.58-2.33,1.25-4.26,3.16-6.69,4.26Zm78.88-2.39c-1.6,.29-3.2,.6-4.79,.91,7.73,13.42,4.24,29.78-1.26,43.33,1.67,1.11,3.33,2.24,5,3.37,.44-1.3,.95-2.58,1.23-3.9,5.73-12.29,14.19-25.13,28.18-28.6-1.84-3.82-2.8-7.97-3.06-12.18-7.68-.85-15.29-2.4-22.5-5.24-.93,.76-1.87,1.54-2.8,2.31Zm-129.22,22.89c-8.96,5.31-13.72,15.89-13.95,26.05-.27,5.68,1.24,11.21,1.97,16.81-3.99,1.79-8.4,3.7-10.14,8.06,5.35,.62,10.67,1.82,15.27,4.76,1.42-.85,2.84-1.7,4.25-2.56-.4,1.04-.8,2.11-1.2,3.18-.03,3.72-2.05,6.8-4.03,9.78-2.74,2.32-5.43,5.13-9.11,5.84-2.72,.68-5.48-.01-8.11-.7,.64,1.66,1.27,3.33,1.88,5.02,.29,4.89-1.87,9.38-4.95,13.05,3.34-1.18,6.86-1.81,10.41-1.73,2.55-9.2,8.89-17.42,17.88-21.04,1.12-.38,2.23-.75,3.35-1.11-3.2-3.55-5.61-8.14-4.9-13.05,1.84,2.74,3.37,6.07,6.58,7.48,3.84,2.02,8.32,1.38,12.45,.88,.04-2.24,.35-4.59-.62-6.67-1.13-3.23-4.22-5.07-6.04-7.82,2.54-5.62,5.84-10.98,7-17.13,3.01-10.94-.65-23.43-9.42-30.68-2.71-2.48-6.07,.11-8.57,1.58Zm-114.9,13.05c.37,3.15,2.67,5.47,4.74,7.67-3.81,.6-8.24,.2-11.26,3.04-3.01,2.91-5.19,7.09-4.81,11.37,.77,2.48,4.13,2.06,6.18,2.21,3.39,.17,5.92-2.41,8.98-3.33,6.09,5.23,11.34,12,19.31,14.53,2.59-1.35,4.75-3.68,7.75-4.14,2.97-.51,6-.46,9.01-.52-1.11-4.88-2.36-9.87-1.38-14.89,1.06-3.72-1.24-6.96-3.08-9.95-1.36,3.27-2.39,7-5.33,9.24-5.42,4.26-13.33,3.66-19.24,.82-1.81-.62-1.28-2.62-1.19-4.05,.29-2.43,1.03-4.81,2.34-6.87,1.09-1.91,2.9-3.78,2.22-6.16-.25-5.29-2.78-10.49-7.66-12.91-3.7,3.61-7.45,8.45-6.58,13.94Zm153.35-13.92c.36,3.72,.31,7.47-.18,11.19,1.96-1.79,4.03-3.44,6.16-5.01-2.03-2.03-4.02-4.09-5.98-6.18Zm110.78,4.26c-8.27,4.19-13.75,12.2-17.58,20.39-2.28,3.9,2.22,6.99,2.98,10.64,2.07,4.69-2.84,8.6-2.19,13.29,.46,4.49,3.83,8.04,7.5,10.34,1.31,.68,3.06,1.88,4.27,.35,4-3.65,2.84-9.59,1.83-14.27,8.71-4.36,18.03-9.15,22.91-18.03,4.76-7.26,5.24-16.55,2.79-24.7-7.41-2.15-15.7-1.86-22.51,1.99Zm-125.18,3.67c.29,4.1,1.15,8.22,.41,12.33-.67,5.73-2.92,11.07-4.64,16.53,2.81-2.85,6.51-5.02,8.15-8.82,3.82-7.85,5.8-17.41,2.93-25.82-2.48,1.64-5.06,3.35-6.85,5.78Zm15.28,13.36c-2.31,4.57-.01,9.42,2.39,13.4-3.73-.65-7.96-1.62-11.37,.58-4.09,2.54-5.92,7.23-7.24,11.63,4.78,3.44,10.91,2.34,15.86-.1,2.28,3.1,4.42,6.31,6.89,9.27,6.61,7.72,16.46,13.09,26.81,12.72-.37-8.25,.18-18.97,8.4-23.35-6.24-9.89-17.83-14.67-28.84-16.95,.58-5.15,.32-11.29-4.25-14.64-4.04-.13-6.97,4.15-8.65,7.44Zm13.72-8.05c1.37,4.09,1.97,8.38,1.85,12.69,10,2.08,19.9,5.49,28.06,11.8,1.43-6.26,5.83-11.21,11.03-14.71-.97-2.11-1.92-4.22-2.83-6.34-.21-.56-.62-1.68-.83-2.24-6.06,4.03-13.3,5.92-20.56,5.62-5.96-1.17-11.7-3.37-16.72-6.82Zm-118.88,10.93c-3.67,8.34-3.55,18.48,1.04,26.45,4.17,8.34,12.23,13.59,19.96,18.27-1.86,4.86-3.28,10.82,.42,15.24,.48-4.45,.25-9.14,2.32-13.25,1.32-3.17,3.87-5.54,6.33-7.82,4.4,1.67,7.62,6.73,12.81,5.76,5.1-.65,8.78-4.79,11.27-8.97-1.83-1.93-3.67-4.21-6.4-4.79-2.9-.42-5.83-.16-8.74-.15-2.78-9.17-6.79-18.53-14.48-24.67-6.67-5.74-15.99-7.48-24.53-6.07Zm95.75,6.72c3.08,.17,6.11,.76,9.04,1.78-2.21-2.63-3.87-5.66-5.01-8.88-1.29,2.39-2.64,4.76-4.03,7.1Zm1.89,23.03c.02,1.81-.03,3.62-.09,5.45-3.16,.58-6.36,.87-9.57,1,.23,.61,.7,1.84,.94,2.45-.18,1.53-.34,3.08-.48,4.64-2.41,.63-4.85,1.19-7.3,1.63,1.09,1.18,2.18,2.38,3.27,3.58,2.01,3,3.64,6.23,4.93,9.61-.6-6.51,1.07-12.92,3.82-18.77l.16,.02c1.16-1.19,2.67-1.87,4.18-2.48,4.59-.75,9.25-1.09,13.88-.44-1.97-2.27-3.77-4.67-5.26-7.27-.79-1.19-1.57-2.38-2.35-3.56-2.16,1.17-6.6,.7-6.13,4.14Zm-121.49,.44c-3.13,2.09-3.9,6.01-4.66,9.43-2.18-2.93-4.32-6.4-8.06-7.45-4.3-1.08-8.94,.22-12.62,2.55-1.63,.82-.49,2.85,0,4.05,1.73,3.63,5.32,5.62,8.89,7.06,1.79,.43,.75,2.42,.74,3.66-1.56,9.53-1.99,20.06,3.01,28.71,3.54,6.64,10.02,11.69,17.29,13.55,2.94-1.03,2.9-4.57,3.93-7,1.34-5.09,5.74-8.55,7.65-13.32,1.3-10.36-4.11-19.74-8.45-28.68,1.21-2.57,4.09-4.01,5.28-6.65,1.34-2.43,1.42-5.23,1.35-7.92-4.8-.97-10.27-1.15-14.36,2.01Zm173.91-.07c-1.83,1.36-2.22,3.95-2.85,6.03-1.9,8.73,.28,18.21,6.05,25.07,4.3,6.14,10.9,9.9,17.09,13.83-2.15,4.91-3.43,11.29,.69,15.61,4.7-.1,8.9-3.51,11.17-7.46,2.09-3.19,.87-7.06,.53-10.53,3.71,1.41,7.79,3.08,11.77,1.66,3.82-1.7,6.65-5.04,8.79-8.55-1.89-1.91-3.75-4.28-6.55-4.75-2.86-.35-5.75-.21-8.62-.26-2.49-8.6-6.13-17.32-13.02-23.34-6.49-6.32-16.21-8.85-25.05-7.31Zm-157.14,4.93c-.17,.32-.51,.97-.68,1.3-1.64,2.24-3.52,4.31-5.46,6.32,5.3,7.78,9.66,16.41,11.28,25.77,4.55-2.65,9.36-4.8,14.34-6.5,1.39-.42,2.79-.79,4.18-1.19-.73-4.82-.09-9.68,1.47-14.27-6.6-3.6-12.88-7.81-18.35-13-2.25,.55-4.52,1.06-6.78,1.57Zm108.21,10.07c-1.2,.34-1.74,1.6-2.11,2.68-2.72,8.6-1.58,18.54,3.76,25.93,1.03-.61,2.07-1.22,3.11-1.81,5.64,2.06,10.4,6.54,12.4,12.25,1,1.51,.98,4.7,3.41,4.5,4.38-.22,9.18,.7,13.2-1.51,5.01,2.35,11.6,2.91,15.58-1.66,1.83-1.96,6.09-5.64,2.48-7.91-3.62-3.26-8.72-3.04-13.16-2.01-2.6-6.67-4.82-13.67-9.52-19.23-6.71-8.68-18.31-13.47-29.15-11.23Zm-72.67,2.36c-4.33,3.29-5.07,9.04-4.01,14.04-10.11,2.33-20.33,6.61-26.9,15-5.03,6.26-7.28,15.02-5.36,22.85,7.55,3.96,16.95,4.17,24.71,.64,9.18-3.83,15.36-12.11,20.65-20.17,2.95,1.2,5.9,2.91,9.19,2.77,2.6-.05,4.78-1.61,6.93-2.88-1.57-4.48-3.6-9.59-8.26-11.62-3.27-1.63-6.97-.84-10.41-.37,1.68-2.72,3.4-5.68,3.05-9.01,.07-4.27-2.97-7.67-5.97-10.32-1.05-.79-2.37-2.3-3.62-.93Zm42.19,3.15c-7.51,2.7-14.26,8.34-17.1,15.95,3.74,3.86,6.79,8.67,7.36,14.13-1.82,3.71-6.75,3.8-10.19,5.22,0,2.55,.12,5.12-.15,7.69-2.81,1.54-6.22,2.08-8.56,4.44-1.98,1.61-2.55,4.18-3.31,6.5,4.19,2.53,9.27,4.99,14.23,3.38,3.26-.92,5.44-3.65,7.58-6.07,1.04,3.58,1.67,7.83,4.99,10.11,3.71,2.75,8.5,2.93,12.92,2.43,.29-2.18,.87-4.43,.2-6.58-.87-3.33-3.48-5.73-5.76-8.13,4.82-6.95,9.61-14.31,10.75-22.87,1.4-9.41-1.75-19.61-8.9-26.02-1.07-1.3-2.74-.56-4.06-.18Zm38.3,28.2c-3.23,3.79-6.13,8.68-4.93,13.87,.66,3.8,3.69,6.41,6.59,8.64-3.54,.29-7.56,.27-10.31,2.9-3.74,3.62-4.62,9.19-4.16,14.18,2.43,.26,4.93,.76,7.33,.07,2.96-.76,5.18-2.98,7.45-4.88,7.25,5.16,14.73,10.86,23.83,12.06,8.34,1.35,17.18-.89,23.79-6.17,.98-.96,2.5-2.09,1.98-3.66-.66-3.47-2.15-6.73-3.95-9.74-3.87-6.63-10.97-10.7-18.14-12.85-6.56-2-13.45-1.4-20.19-1.52-.86-5.51-3.92-10.78-9.29-12.9Z" style="fill:#a26337;"/><path d="M143.18,662.82c5.2-.73,5.33,5.13,5.8,8.69-1.77-3.01-3.69-5.91-5.8-8.69Z" style="fill:#0b797a;"/><g><path d="M166.26,669.07c5.44-3.63,12.05-6.77,18.72-4.93,5.08,1.3,7.88,6.12,10.65,10.15-.43,2.32-.87,4.64-1.27,6.97-2.06-3.93-4.54-8.16-8.95-9.75-6.01-2.13-12.57,.3-17.57,3.76-.54-2.07-1.06-4.13-1.58-6.2Z" style="fill:#00797e;"/><path d="M58.03,712.03c5.43-3.86,12.27-7.08,19.04-5.16,3.3,.75,5.42,3.53,7.45,6.01-7.21-3.19-15.09-.36-21.14,3.95,.97,2.97,2.05,5.92,3.54,8.68-4.78-3.05-7.71-8.01-8.89-13.48Z" style="fill:#00797e;"/><path d="M271.48,796.94c1.59-.31,3.19-.62,4.79-.91,3.69,7.04,5.45,15.03,4.48,22.98-.26,7.14-3.55,13.67-4.3,20.73-.28,1.32-.79,2.6-1.23,3.9-1.67-1.13-3.33-2.26-5-3.37,5.5-13.55,8.99-29.91,1.26-43.33Z" style="fill:#00797e;"/><path d="M19.76,827c-.07-6.87,4.9-12.48,9.92-16.57,1.55,.71,3.1,1.43,4.64,2.15-4.28,3.88-8.03,9.39-7.25,15.44,.53,4.37,3.74,7.69,6.78,10.58-2.87-.37-5.79-.7-8.68-.31-2.6-3.29-5.49-6.86-5.41-11.29Z" style="fill:#00797e;"/><path d="M292.71,907.92c1.58,1.26,3.14,2.55,4.69,3.87-3.04,4.19-6.15,8.33-9.4,12.37-.86,.89-1.87,1.62-2.94,2.26-4.99,.46-9.83-1.06-14.11-3.53,.89,4.79,2.3,10.18-.44,14.66-3.35,5.6-9.85,8.42-16.06,9.45-1.11-1.95-2.24-3.88-3.42-5.78,5.82-1.75,12.34-4.1,15.31-9.85,2.46-4.53,1.08-9.88-.69-14.37,3.88,2.59,8.43,5.17,13.29,4.08,6.66-1.41,10.81-7.5,13.77-13.16Z" style="fill:#00797e;"/><path d="M120.09,925.44c2.68,.86,5.39,1.61,8.11,2.33,.27,2.26,.54,4.51,.81,6.79-.96,.34-1.92,.71-2.87,1.11-.11-.62-.32-1.84-.42-2.45-2.97-.87-5.94-1.71-8.91-2.53,1.13-1.73,2.2-3.49,3.28-5.25Z" style="fill:#00797e;"/><path d="M129.96,956.31c5.11-.77,8.46-5.09,10.96-9.22,.34,4.67,1.03,9.96,4.94,13.11,5.11,4.35,12.29,3.77,18.5,3-.68,2.43,.8,6.85-2.61,7.35-6.18,1.14-13.5,.59-18.13-4.15-3.14-3.05-3.61-7.63-4.64-11.66-2.99,3.49-6.13,7.61-10.99,8.33-6.72,1.24-12.91-2.52-18.1-6.31,.87-2.3,1.76-4.58,2.75-6.82,4.96,3.7,10.83,7.48,17.32,6.37Z" style="fill:#00797e;"/></g><g><path d="M195.78,673.46c.69-3.16,.26-7.48,3.34-9.45,2.8-.05,5.48,.95,8.2,1.49-4.83,.86-9.09,3.67-11.54,7.96Z" style="fill:#01797d;"/><path d="M106.83,673.18c2.17-.75,4.38-1.36,6.59-1.97-6.55,10.37-6.65,23.21-5.25,35.01-4.25,.21-8.93,.67-12.12,3.83-3.43,3.01-4.19,7.71-4.69,12.01-1.25-2.32-2.58-4.62-4.35-6.58,1.29-3.87,2.3-8.19,5.62-10.88,3.32-3.07,8.02-3.42,12.28-3.92-.97-8.86-1.17-17.94,1.05-26.64,.22-.21,.65-.65,.87-.86Z" style="fill:#01797d;"/><path d="M233.82,684.51c1.19-2.63,1.84-6.53,5.11-7.31,5.06,1.87,9.55,5.01,14.23,7.65,.18,.24,.52,.71,.7,.95,.52,2.29,.9,4.62,1.3,6.96,3.04,.15,6.09,.24,9.14,.48,.86,.13,1.64,.46,2.36,.98,3.64,2.67,6.84,5.88,9.79,9.29-8.02-3.11-16.55-4.65-25.13-5.08-.66-4.17-1.48-8.44-3.83-12.03-1.85-3.08-4.87-5.15-7.73-7.18-2,1.73-4.02,3.46-5.94,5.29Z" style="fill:#01797d;"/><path d="M148.74,703.99c10.47,.45,20.86,2.7,30.33,7.29,0,1.76,.05,3.51,.1,5.28-8.95-4.96-19.18-6.77-29.29-7.35-.36-1.75-.73-3.5-1.14-5.22Z" style="fill:#01797d;"/><path d="M73.43,730.95c1.64,.93,3.33,1.74,5.02,2.58-.95,4.32-1.68,8.68-2.24,13.06-1.59-1.98-3.14-3.99-4.95-5.77,.8-3.27,1.52-6.56,2.17-9.87Z" style="fill:#01797d;"/><path d="M96.95,785.49c1.23,.37,2.47,.75,3.71,1.15-1.08,7.38-.29,14.83,.66,22.17-7.5,2.1-14.19,7.58-16.13,15.35,3.36,2.98,7.44,4.85,11.55,6.56-5.27,1.32-9.32-2.97-14.32-3.28l-.52-.06c1.87-4.26,3.31-8.7,4.32-13.23l.16-.09c3.64-2.14,7.42-4.01,11.29-5.68-.94-7.59-1.45-15.25-.72-22.89Z" style="fill:#01797d;"/><path d="M316.3,790.41c2.99,.7,6.06,1.23,9.16,.98v.3c.18,6.22,1.5,12.34,1.77,18.56l-.05,.97c-.12,1.73-.29,3.46-.38,5.22-1.16-2.91-4.19-3.87-6.85-4.9,1.61-3.3,3.49-6.81,2.79-10.61-.55-4.27-3.52-7.61-6.44-10.52Z" style="fill:#01797d;"/><path d="M307.76,858.75c7.24-4.14,13.69-9.84,17.86-17.13-.66,3.83-.86,7.72-1.53,11.55-.26,.43-.79,1.28-1.05,1.7-6.35,5.12-13.8,8.49-21.01,12.17,1.02,7.12,1.08,15.23-4,20.94-2.12,3.09-5.37-.17-7.75-1.29,2.56-2.48,4.77-5.43,5.62-8.94,1.39-4.32,.18-8.83,.3-13.23,3.76-2.11,7.89-3.49,11.56-5.77Z" style="fill:#01797d;"/><path d="M29.5,858.69c1.94-.87,3.82-1.87,5.69-2.87,5.46,5.94,11.13,11.78,18,16.11-.37,2.13-.74,4.28-1.09,6.43-2.6-5.58-7.37-10.79-14.03-10.6-3.02-2.87-5.85-5.93-8.57-9.07Z" style="fill:#01797d;"/><path d="M20.57,873.72c1.38-.47,2.76-.91,4.13-1.4-.28,8.55,7.26,14.68,14.5,17.64-1.12,5.34-2.15,10.72-2.38,16.19-2.41-3.38-4.42-7.06-5.04-11.21-.08-1.65-1.75-2.27-2.82-3.19-.67-.42-1.24-.93-1.7-1.53-2.18-5.52-4.68-10.92-6.69-16.5Z" style="fill:#01797d;"/><path d="M74.14,877.27c2.26-.51,4.53-1.02,6.78-1.57,5.47,5.19,11.75,9.4,18.35,13-1.56,4.59-2.2,9.45-1.47,14.27-1.39,.4-2.79,.77-4.18,1.19,.24-4.03,.8-8.03,1.83-11.93-5.28-3.19-10.71-6.24-15.27-10.44-1.84-1.81-4.22-2.78-6.72-3.22,.17-.33,.51-.98,.68-1.3Z" style="fill:#01797d;"/><path d="M84.8,952.84c11.08-.45,20.2-7.64,27.32-15.53-3.78,9-12.17,15.24-20.59,19.64-.21-.02-.63-.06-.85-.08-2.02-1.26-3.94-2.66-5.88-4.03Z" style="fill:#01797d;"/></g><g><path d="M740.51,680.74c4.46-1.5,9.44-.13,12.98,2.81,5.42,4.46,8.38,11.25,9.72,18,1.57,8.9,.7,18.63-4.16,26.44-2.79,4.45-7.54,8.26-13.03,8.03-5.99,0-10.92-4.36-13.94-9.17-5.57-9.14-6.75-20.68-3.9-30.93,1.81-6.38,5.75-12.94,12.33-15.18Z" style="fill:#f2b6ac;"/><path d="M670.39,693.52c5.18-2.23,11.2-.62,15.63,2.55,7.61,5.36,12.45,14,14.48,22.97,1.45,6.76,1.33,14.28-2.2,20.41-2.29,4.02-6.67,6.82-11.35,6.8-6.28-.03-11.83-3.84-15.88-8.35-7.2-8.18-11.04-19.44-9.74-30.31,.75-5.67,3.57-11.67,9.06-14.07Z" style="fill:#f2b6ac;"/><path d="M798.29,729.46c3.5-1.66,7.84-1.1,10.82,1.39,4.39,3.55,6.36,9.24,7.17,14.66,1.17,8.95-.57,18.58-5.94,25.96-2.81,3.84-7.41,6.99-12.37,6.15-4.91-.9-8.26-5.27-10.02-9.67-3.12-7.97-2.88-17.04-.17-25.09,1.93-5.39,5.18-10.82,10.51-13.4Z" style="fill:#f2b6ac;"/><path d="M634.26,756.44c4.86-1.8,10.14,.24,14.16,3.07,7.23,5.29,12.24,13.41,14.14,22.14,.98,4.99,1.03,10.58-1.74,15.05-2.18,3.6-6.72,5.31-10.78,4.51-6.17-1.11-11.22-5.41-15.02-10.18-5.23-6.8-8.68-15.44-7.78-24.12,.43-4.32,2.75-8.89,7.02-10.47Z" style="fill:#f2b6ac;"/><path d="M722.51,766.68c5.8-1.23,12.08-.45,17.21,2.63,7.72,4.47,12.87,12.1,17.3,19.63,2.35,3.85,4.15,8.41,8.19,10.85,7,4.36,15.07,7.12,21.17,12.86,5.62,5.08,9.55,12.86,7.92,20.55-1.37,6.95-7.62,11.92-14.24,13.58-9.91,2.82-20.01-.87-30.04-.55-12.3-.35-24.14,4.07-34.71,10.02-6.75,3.9-14.59,6.9-22.5,5.54-5.3-.81-10.24-4.14-12.59-9.01-2.88-5.77-2.28-12.73,.11-18.55,3.03-7.36,8.83-13,13.9-18.96,2.24-2.6,4.18-5.63,4.58-9.11,1.51-9.69,2.71-19.84,7.99-28.34,3.43-5.65,9.17-9.9,15.71-11.14Z" style="fill:#f2b6ac;"/></g><g><path d="M210.35,687.64c1.19-1.22,2.38-2.44,3.52-3.72,3.82,6.72,7.23,13.7,9.42,21.13,2.62-1.33,5.23-2.65,7.85-3.98,1.61,2.3,3.53,4.35,5.51,6.35-5.41-1.07-11.24-.66-15.62,3.02-2.14-8.19-6.01-15.78-10.68-22.8Z" style="fill:#02797d;"/><path d="M136.68,748.65c4.47-1.62,9.25-.74,13.79,.08l.61,.1c.09,.17,.28,.51,.37,.68,1.22,2.2,2.45,4.38,3.68,6.57-2.88-3.06-6.68-5.67-11.1-5.27-5.16,.42-10.75,2.26-14.08,6.44-3.75,.34-7.42,1.23-10.94,2.57l-.2-3.88c2.82-.53,5.78-.74,8.43-1.92,3.11-1.84,5.89-4.36,9.44-5.37Z" style="fill:#02797d;"/><path d="M110.23,825.8c1.08-1.65,2.16-3.28,3.23-4.92-.07,4.47,.56,9.38,3.87,12.71,2.97,3.25,7.48,4,11.63,4.56-.08,6.27,.66,12.53,2.06,18.64l-2.16,2.64c-1.14-6.64-2.13-13.33-2.16-20.09-3.83-.79-8.03-1.25-11.08-3.95-2.96-2.4-4.12-6.16-5.39-9.59Z" style="fill:#02797d;"/><path d="M13.01,841.12c2.76-1.74,6.13-1.72,9.23-2.3-4.02,2.41-6.74,6.35-8.26,10.73-.36-2.79-1.71-5.64-.97-8.43Z" style="fill:#02797d;"/><path d="M233.05,934.61c4.84-2.67,8.21-7.12,10.77-11.91,.92,1.33,1.85,2.67,2.8,4-.04,1.15-.04,2.33,.01,3.51-2.56,2.63-4.91,5.45-7.06,8.43-2.07-1.51-4.3-2.78-6.52-4.03Z" style="fill:#02797d;"/></g><path d="M253.86,685.8c3.92,1.77,7.49,4.29,10.44,7.44-3.05-.24-6.1-.33-9.14-.48-.4-2.34-.78-4.67-1.3-6.96Z" style="fill:#01949b;"/><g><path d="M313.22,686c4.76,3.86,8.34,8.87,11.86,13.82,18.18,24.51,30.63,52.85,38.97,82.09,2.2,6.37,2.41,13.33,5.58,19.37,.32,2.39,.6,4.8,.8,7.23,.48,15.51-.19,31.11-3.03,46.39-6.19,34.78-21.83,67.81-44.77,94.67-17.73,21.03-39.98,38.06-64.51,50.43h-33.69c23.54-7.31,45.69-19.11,64.71-34.8,22.63-18.57,40.85-42.46,52.76-69.2,16.18-36.06,20.35-77.26,12.26-115.91-6.74-32.41-22.31-62.9-44.49-87.46,1.18-2.22,2.36-4.43,3.55-6.63Z" style="fill:#86d0cf;"/><path d="M12.94,946.41c3.87-1.76,7.66-3.68,11.37-5.74,14.07,16.76,31.06,31.07,50,42.05,12.19,7.26,25.42,12.49,38.74,17.28h-32.76c-25.94-12.79-49.01-31.23-67.35-53.59Z" style="fill:#86d0cf;"/></g><path d="M294.91,723.58c2.34,2.91,5.51,5.53,6.18,9.41-1.25,2.01-3.51,3-5.38,4.33,.27-4.6,.16-9.23-.8-13.74Z" style="fill:#00797d;"/><g><path d="M226.11,728.85c1.85-.35,3.7-.7,5.55-1.06,1.01,1.17,2.03,2.35,3.04,3.53-.69,4.35,.39,8.62,1.68,12.75-3.14-5.26-5.45-11.14-10.27-15.22Z" style="fill:#017a7d;"/><path d="M130.11,890.84c3.68-.71,6.37-3.52,9.11-5.84-2.91,5.84-8.79,9.8-15.34,10.16-.61-1.69-1.24-3.36-1.88-5.02,2.63,.69,5.39,1.38,8.11,.7Z" style="fill:#017a7d;"/></g><g><path d="M56.21,741.21c1.92-2.67,4.71-4.48,7.51-6.1,1.61,1.26,3.24,2.49,4.89,3.71-2.82,2.02-5.77,4.05-7.72,7-2.42,3.48-3.26,7.72-4.1,11.8-13.39,.43-28,2.94-37.74,12.99,.56-2.98,1.16-5.95,2.05-8.84,.2-.24,.61-.72,.82-.97,8.97-4.42,19.07-5.57,28.92-6.13,1.2-4.68,2.27-9.61,5.37-13.46Z" style="fill:#01797e;"/><path d="M253.57,739.55c5.42,2.66,10.82,5.69,16.93,6.4,.96,.92,1.93,1.86,2.9,2.79,6.11-1.38,12.52-2.62,18.71-.92,9.98,2.38,17.98,9.27,24.96,16.44,2.21,2.05,3.1,6.84,6.86,6.06-2.8,.73-5.47,1.83-8.11,2.98-7.09-8.96-15.41-17.77-26.5-21.51-6.53-2.32-13.67-1.82-20.2,.21-3.56-2.81-7.2-5.56-11.19-7.74-1.85-1.16-4.39-2.09-4.36-4.71Z" style="fill:#01797e;"/><path d="M39.33,804.15c2.04-.46,4.04-1.08,6.05-1.65,.73,9.12,3.7,17.86,7.55,26.1-1.44,.47-2.89,.94-4.34,1.42-.79-6.41-2.92-13.05-8.18-17.19-.27-2.91-.66-5.8-1.08-8.68Z" style="fill:#01797e;"/><path d="M170.25,964.35c7.71,2.59,16.01-.1,21.91-5.36,5.94,4.83,12.09,9.57,19.15,12.68-2.73,.66-5.48,1.71-8.32,1.51-3.76-1.6-6.6-4.68-9.85-7.07-3.75,2.53-7.58,5.26-12.13,6.1-3.56,.92-7.23,.21-10.74-.61,0-2.42-.03-4.84-.02-7.25Z" style="fill:#01797e;"/></g><path d="M155.13,756.08c-1.23-2.19-2.46-4.37-3.68-6.57,2.67,1.59,5.36,3.15,8.01,4.79-.63,2.22-1.12,4.48-1.55,6.76-.92-1.67-1.85-3.32-2.78-4.98Z" style="fill:#039398;"/><path d="M76.68,761.13c.46,1.79,.93,3.58,1.4,5.38-2.3,.14-4.6,.33-6.89,.6,2-1.84,3.84-3.83,5.49-5.98Z" style="fill:#02797c;"/><g><path d="M325.77,769.89c6.36-3.06,13.95-3.21,20.24,.13-.02,5.61-1.65,11.33-5.21,15.74-2.71,3.2-6.98,4.58-11.09,4.34,5.98-3.9,8.09-11.23,8.45-17.98-3.92-1.63-8.13-2.66-12.39-2.23Z" style="fill:#01959b;"/><path d="M327.23,810.25c-.27-6.22-1.59-12.34-1.76-18.56,5.19,4.71,6.17,12.99,1.76,18.56Z" style="fill:#01959b;"/><path d="M129.75,815.97c5.48-7.07,10.12-14.87,12.87-23.42,.06,5.83,1.45,11.5,3.35,16.98-5.09,2.5-9.29,6.47-12.34,11.23-1.28-1.62-2.57-3.21-3.88-4.79Z" style="fill:#01959b;"/><path d="M185.5,818.05c1.96,2.09,3.95,4.15,5.98,6.18-2.13,1.57-4.2,3.22-6.16,5.01,.49-3.72,.54-7.47,.18-11.19Z" style="fill:#01959b;"/><path d="M178.86,871.97c2.78-.67,5.64-1.01,8.48-.58,1.49,2.6,3.29,5,5.26,7.27-4.63-.65-9.29-.31-13.88,.44,.01-.42,.04-1.26,.05-1.68,.06-1.83,.11-3.64,.09-5.45Z" style="fill:#01959b;"/></g><path d="M186.27,769.29c2.25,1.6,4.57,3.13,7,4.46l.34,.19c.13,1.43,.26,2.87,.38,4.32-2.51-2.59-5.17-5.05-8.21-7.01-2.33,2.01-4.53,4.15-6.92,6.09,.04-.45,.12-1.36,.15-1.81,2.24-2.28,4.77-4.24,7.26-6.24Z" style="fill:#157976;"/><g><path d="M1169.91,772.88c15.95,7.9,32,15.67,47.22,24.96,12.84,8.21,25.64,16.7,36.53,27.45,4.85,5.4,9.61,11.26,11.71,18.34,1.42,4.95,1.04,11.11-3.1,14.69-5.79,4.89-13.58,6.25-20.86,7.17-14.12,1.34-28.31,.17-42.37-1.26-21.97-2.73-43.86-6.41-65.39-11.58,11.44-26.87,23.3-53.59,36.26-79.77Z" style="fill:#a76739;"/><path d="M1218.71,910.67c21.54-4.03,43.6-2.73,65.31-.98,12.88,1.44,25.91,2.23,38.59,5.07-2.82,13.67-5.74,27.31-8.71,40.94-37.38-14.46-76.18-24.75-114.26-37.12,5.33-4.63,12.38-6.29,19.07-7.91Z" style="fill:#a76739;"/><path d="M1192.88,940.08c-1.13-4.17-1.92-9,.57-12.83,39.35,12.98,79.55,23.44,118.18,38.52-2.57,11.43-5.22,22.85-8,34.23h-55.32c-6.17-4.55-12.1-9.42-18.05-14.26-7.56-6.04-14.18-13.13-21.02-19.95-6.87-7.52-13.29-15.88-16.36-25.71Z" style="fill:#a76739;"/></g><path d="M222.21,784.67c.75-.95,1.49-1.9,2.24-2.82,2.56,4.39,5.87,8.46,7.13,13.49,.51,2.56,1.94,4.74,3.96,6.38-.23,.84-.45,1.7-.67,2.57-1.7-1.51-3.39-3.01-5.07-4.52-.74-5.76-3.6-10.95-7.59-15.1Z" style="fill:#08797b;"/><path d="M11.9,795.65c4.02,3.45,8.6,6.24,13.56,8.13-4.62-.09-9.09-1.29-13.38-2.96v-.69c-.02-1.5-.08-3-.18-4.48Z" style="fill:#017a7c;"/><path d="M216.82,838.11c7.26,.3,14.5-1.59,20.56-5.62,.21,.56,.62,1.68,.83,2.24-6.57,3.25-14.1,5.51-21.39,3.38Z" style="fill:#0c7a7a;"/><path d="M176.97,848.94c1.39-2.34,2.74-4.71,4.03-7.1,1.14,3.22,2.8,6.25,5.01,8.88-2.93-1.02-5.96-1.61-9.04-1.78Z" style="fill:#01969b;"/><path d="M254.91,854.03c1.08,1.23,2.03,2.58,3.05,3.89-2.64,3.52-6.17,6.18-10.22,7.88-3.53-1.62-7.44-2.03-11.26-2.38,4.23-.27,8.86,.08,12.6-2.27,2.71-1.64,4.03-4.65,5.83-7.12Z" style="fill:#027a7d;"/><g><path d="M266.62,864.08c4.42,.18,8.61-1.31,12.44-3.39-.96,1.98-1.92,3.97-2.72,6.04-3.3-.65-6.6-1.36-9.72-2.65Z" style="fill:#107878;"/><path d="M178.86,871.97c-.47-3.44,3.97-2.97,6.13-4.14,.78,1.18,1.56,2.37,2.35,3.56-2.84-.43-5.7-.09-8.48,.58Z" style="fill:#107878;"/></g><path d="M144.45,872.04c.4-.27,.81-.52,1.22-.76-.71,4.91,1.7,9.5,4.9,13.05-1.12,.36-2.23,.73-3.35,1.11-1.31-3.42-2.64-6.82-3.97-10.22,.4-1.07,.8-2.14,1.2-3.18Z" style="fill:#197774;"/><path d="M260.4,875.77c8.27,5.62,11.23,15.86,14.63,24.74-.87,.07-2.61,.2-3.47,.27-2.48-8.84-5.97-17.4-11.16-25.01Z" style="fill:#01797c;"/><path d="M169.2,878.42c3.21-.13,6.41-.42,9.57-1,0,.42-.04,1.26-.05,1.68-1.51,.61-3.02,1.29-4.18,2.48l-.16-.02c-1.42-.2-2.84-.44-4.24-.69-.24-.61-.71-1.84-.94-2.45Z" style="fill:#007a7c;"/><path d="M170.14,880.87c1.4,.25,2.82,.49,4.24,.69-2.75,5.85-4.42,12.26-3.82,18.77-1.29-3.38-2.92-6.61-4.93-9.61,1.26-.84,2.51-1.66,3.77-2.48,.09-.92,.17-1.83,.26-2.73,.14-1.56,.3-3.11,.48-4.64Z" style="fill:#02959b;"/><path d="M162.36,887.14c2.45-.44,4.89-1,7.3-1.63-.09,.9-.17,1.81-.26,2.73-1.26,.82-2.51,1.64-3.77,2.48-1.09-1.2-2.18-2.4-3.27-3.58Z" style="fill:#01797b;"/><path d="M213.64,893.91c3.88,.77,9.2-.12,10.78,4.53-2.7,0-5.4,.02-8.09,.11-.86-1.58-1.78-3.11-2.69-4.64Z" style="fill:#027a7e;"/><path d="M171.35,904.71c2.13,6.08,5.67,11.54,10.15,16.15-.3,.75-.91,2.25-1.21,3-3.22-3.32-5.71-7.23-7.67-11.4l-1.4,.12c.2-2.63,.16-5.25,.13-7.87Z" style="fill:#157876;"/><path d="M231.64,907.57c5.27,4.2,10.9,7.89,16.7,11.32-.14,.61-.41,1.84-.55,2.45-5.87-3.89-12.63-7.37-16.15-13.77Z" style="fill:#0c797a;"/><path d="M157.4,941.79c5.23-6.8,9.6-14.24,12.64-22.28-.52,9.25-5.95,17.05-10.6,24.71-.67-.82-1.35-1.64-2.04-2.43Z" style="fill:#0c7979;"/><path d="M179.69,933.52c2.04,3.54,5,6.4,8.34,8.72-2.09,.04-4.18,.12-6.26,.3-1.11-2.9-1.84-5.93-2.08-9.02Z" style="fill:#0b7879;"/></g></svg>